<mxfile host="Electron" modified="2024-06-10T13:38:14.772Z" agent="Mozilla/5.0 (Windows NT 10.0; Win64; x64) AppleWebKit/537.36 (KHTML, like Gecko) draw.io/24.5.1 Chrome/124.0.6367.207 Electron/30.0.6 Safari/537.36" etag="VdDh9npfujE0pfb-DrEw" version="24.5.1" type="device">
  <diagram id="C5RBs43oDa-KdzZeNtuy" name="Page-1">
    <mxGraphModel dx="1594" dy="1080" grid="1" gridSize="10" guides="1" tooltips="1" connect="1" arrows="1" fold="1" page="1" pageScale="1" pageWidth="2000" pageHeight="800" math="0" shadow="0">
      <root>
        <mxCell id="WIyWlLk6GJQsqaUBKTNV-0" />
        <mxCell id="WIyWlLk6GJQsqaUBKTNV-1" parent="WIyWlLk6GJQsqaUBKTNV-0" />
        <mxCell id="zkfFHV4jXpPFQw0GAbJ--0" value="+ Utilisateur" style="swimlane;fontStyle=2;align=center;verticalAlign=top;childLayout=stackLayout;horizontal=1;startSize=26;horizontalStack=0;resizeParent=1;resizeLast=0;collapsible=1;marginBottom=0;rounded=0;shadow=0;strokeWidth=1;" parent="WIyWlLk6GJQsqaUBKTNV-1" vertex="1">
          <mxGeometry x="130" y="130" width="160" height="430" as="geometry">
            <mxRectangle x="130" y="130" width="160" height="26" as="alternateBounds" />
          </mxGeometry>
        </mxCell>
        <mxCell id="zkfFHV4jXpPFQw0GAbJ--1" value="- uti_id" style="text;align=left;verticalAlign=top;spacingLeft=4;spacingRight=4;overflow=hidden;rotatable=0;points=[[0,0.5],[1,0.5]];portConstraint=eastwest;" parent="zkfFHV4jXpPFQw0GAbJ--0" vertex="1">
          <mxGeometry y="26" width="160" height="26" as="geometry" />
        </mxCell>
        <mxCell id="zkfFHV4jXpPFQw0GAbJ--2" value="- uti_nom" style="text;align=left;verticalAlign=top;spacingLeft=4;spacingRight=4;overflow=hidden;rotatable=0;points=[[0,0.5],[1,0.5]];portConstraint=eastwest;rounded=0;shadow=0;html=0;" parent="zkfFHV4jXpPFQw0GAbJ--0" vertex="1">
          <mxGeometry y="52" width="160" height="26" as="geometry" />
        </mxCell>
        <mxCell id="zkfFHV4jXpPFQw0GAbJ--3" value="- uti_prenom" style="text;align=left;verticalAlign=top;spacingLeft=4;spacingRight=4;overflow=hidden;rotatable=0;points=[[0,0.5],[1,0.5]];portConstraint=eastwest;rounded=0;shadow=0;html=0;" parent="zkfFHV4jXpPFQw0GAbJ--0" vertex="1">
          <mxGeometry y="78" width="160" height="26" as="geometry" />
        </mxCell>
        <mxCell id="vHaJpaE_rv1m4daf2spT-0" value="- uti_cate" style="text;align=left;verticalAlign=top;spacingLeft=4;spacingRight=4;overflow=hidden;rotatable=0;points=[[0,0.5],[1,0.5]];portConstraint=eastwest;rounded=0;shadow=0;html=0;" vertex="1" parent="zkfFHV4jXpPFQw0GAbJ--0">
          <mxGeometry y="104" width="160" height="26" as="geometry" />
        </mxCell>
        <mxCell id="vHaJpaE_rv1m4daf2spT-11" value="- uti_role" style="text;align=left;verticalAlign=top;spacingLeft=4;spacingRight=4;overflow=hidden;rotatable=0;points=[[0,0.5],[1,0.5]];portConstraint=eastwest;rounded=0;shadow=0;html=0;" vertex="1" parent="zkfFHV4jXpPFQw0GAbJ--0">
          <mxGeometry y="130" width="160" height="26" as="geometry" />
        </mxCell>
        <mxCell id="vHaJpaE_rv1m4daf2spT-12" value="- uti_adresse" style="text;align=left;verticalAlign=top;spacingLeft=4;spacingRight=4;overflow=hidden;rotatable=0;points=[[0,0.5],[1,0.5]];portConstraint=eastwest;rounded=0;shadow=0;html=0;" vertex="1" parent="zkfFHV4jXpPFQw0GAbJ--0">
          <mxGeometry y="156" width="160" height="26" as="geometry" />
        </mxCell>
        <mxCell id="vHaJpaE_rv1m4daf2spT-13" value="- uti_adresse_liv" style="text;align=left;verticalAlign=top;spacingLeft=4;spacingRight=4;overflow=hidden;rotatable=0;points=[[0,0.5],[1,0.5]];portConstraint=eastwest;rounded=0;shadow=0;html=0;" vertex="1" parent="zkfFHV4jXpPFQw0GAbJ--0">
          <mxGeometry y="182" width="160" height="26" as="geometry" />
        </mxCell>
        <mxCell id="vHaJpaE_rv1m4daf2spT-14" value="- uti_adresse_fac" style="text;align=left;verticalAlign=top;spacingLeft=4;spacingRight=4;overflow=hidden;rotatable=0;points=[[0,0.5],[1,0.5]];portConstraint=eastwest;rounded=0;shadow=0;html=0;" vertex="1" parent="zkfFHV4jXpPFQw0GAbJ--0">
          <mxGeometry y="208" width="160" height="26" as="geometry" />
        </mxCell>
        <mxCell id="vHaJpaE_rv1m4daf2spT-24" style="rounded=0;orthogonalLoop=1;jettySize=auto;html=1;entryX=0;entryY=0.5;entryDx=0;entryDy=0;strokeColor=default;edgeStyle=orthogonalEdgeStyle;endArrow=none;endFill=0;" edge="1" parent="zkfFHV4jXpPFQw0GAbJ--0" source="vHaJpaE_rv1m4daf2spT-15" target="vHaJpaE_rv1m4daf2spT-11">
          <mxGeometry relative="1" as="geometry">
            <Array as="points">
              <mxPoint x="-90" y="247" />
              <mxPoint x="-90" y="143" />
            </Array>
          </mxGeometry>
        </mxCell>
        <mxCell id="vHaJpaE_rv1m4daf2spT-15" value="- uti_ville" style="text;align=left;verticalAlign=top;spacingLeft=4;spacingRight=4;overflow=hidden;rotatable=0;points=[[0,0.5],[1,0.5]];portConstraint=eastwest;rounded=0;shadow=0;html=0;" vertex="1" parent="zkfFHV4jXpPFQw0GAbJ--0">
          <mxGeometry y="234" width="160" height="26" as="geometry" />
        </mxCell>
        <mxCell id="vHaJpaE_rv1m4daf2spT-16" value="- uti_cp" style="text;align=left;verticalAlign=top;spacingLeft=4;spacingRight=4;overflow=hidden;rotatable=0;points=[[0,0.5],[1,0.5]];portConstraint=eastwest;rounded=0;shadow=0;html=0;" vertex="1" parent="zkfFHV4jXpPFQw0GAbJ--0">
          <mxGeometry y="260" width="160" height="26" as="geometry" />
        </mxCell>
        <mxCell id="vHaJpaE_rv1m4daf2spT-17" value="- uti_tel" style="text;align=left;verticalAlign=top;spacingLeft=4;spacingRight=4;overflow=hidden;rotatable=0;points=[[0,0.5],[1,0.5]];portConstraint=eastwest;rounded=0;shadow=0;html=0;" vertex="1" parent="zkfFHV4jXpPFQw0GAbJ--0">
          <mxGeometry y="286" width="160" height="26" as="geometry" />
        </mxCell>
        <mxCell id="vHaJpaE_rv1m4daf2spT-18" value="- uti_mail" style="text;align=left;verticalAlign=top;spacingLeft=4;spacingRight=4;overflow=hidden;rotatable=0;points=[[0,0.5],[1,0.5]];portConstraint=eastwest;rounded=0;shadow=0;html=0;" vertex="1" parent="zkfFHV4jXpPFQw0GAbJ--0">
          <mxGeometry y="312" width="160" height="26" as="geometry" />
        </mxCell>
        <mxCell id="vHaJpaE_rv1m4daf2spT-19" value="- uti_mdp" style="text;align=left;verticalAlign=top;spacingLeft=4;spacingRight=4;overflow=hidden;rotatable=0;points=[[0,0.5],[1,0.5]];portConstraint=eastwest;rounded=0;shadow=0;html=0;" vertex="1" parent="zkfFHV4jXpPFQw0GAbJ--0">
          <mxGeometry y="338" width="160" height="26" as="geometry" />
        </mxCell>
        <mxCell id="zkfFHV4jXpPFQw0GAbJ--4" value="" style="line;html=1;strokeWidth=1;align=left;verticalAlign=middle;spacingTop=-1;spacingLeft=3;spacingRight=3;rotatable=0;labelPosition=right;points=[];portConstraint=eastwest;" parent="zkfFHV4jXpPFQw0GAbJ--0" vertex="1">
          <mxGeometry y="364" width="160" height="6" as="geometry" />
        </mxCell>
        <mxCell id="vHaJpaE_rv1m4daf2spT-22" value="+ login()" style="text;align=left;verticalAlign=top;spacingLeft=4;spacingRight=4;overflow=hidden;rotatable=0;points=[[0,0.5],[1,0.5]];portConstraint=eastwest;rounded=0;shadow=0;html=0;" vertex="1" parent="zkfFHV4jXpPFQw0GAbJ--0">
          <mxGeometry y="370" width="160" height="26" as="geometry" />
        </mxCell>
        <mxCell id="vHaJpaE_rv1m4daf2spT-23" value="+ register()" style="text;align=left;verticalAlign=top;spacingLeft=4;spacingRight=4;overflow=hidden;rotatable=0;points=[[0,0.5],[1,0.5]];portConstraint=eastwest;rounded=0;shadow=0;html=0;" vertex="1" parent="zkfFHV4jXpPFQw0GAbJ--0">
          <mxGeometry y="396" width="160" height="26" as="geometry" />
        </mxCell>
        <mxCell id="vHaJpaE_rv1m4daf2spT-25" value="*" style="text;html=1;align=center;verticalAlign=middle;whiteSpace=wrap;rounded=0;" vertex="1" parent="WIyWlLk6GJQsqaUBKTNV-1">
          <mxGeometry x="80" y="350" width="60" height="30" as="geometry" />
        </mxCell>
        <mxCell id="vHaJpaE_rv1m4daf2spT-26" value="0..1" style="text;html=1;align=center;verticalAlign=middle;whiteSpace=wrap;rounded=0;" vertex="1" parent="WIyWlLk6GJQsqaUBKTNV-1">
          <mxGeometry x="80" y="240" width="60" height="30" as="geometry" />
        </mxCell>
        <mxCell id="vHaJpaE_rv1m4daf2spT-27" value="gÃ¨re" style="text;html=1;align=center;verticalAlign=middle;whiteSpace=wrap;rounded=0;" vertex="1" parent="WIyWlLk6GJQsqaUBKTNV-1">
          <mxGeometry x="30" y="310" width="60" height="30" as="geometry" />
        </mxCell>
        <mxCell id="vHaJpaE_rv1m4daf2spT-29" value="+ Commande" style="swimlane;fontStyle=2;align=center;verticalAlign=top;childLayout=stackLayout;horizontal=1;startSize=26;horizontalStack=0;resizeParent=1;resizeLast=0;collapsible=1;marginBottom=0;rounded=0;shadow=0;strokeWidth=1;" vertex="1" parent="WIyWlLk6GJQsqaUBKTNV-1">
          <mxGeometry x="460" y="250" width="160" height="170" as="geometry">
            <mxRectangle x="130" y="130" width="160" height="26" as="alternateBounds" />
          </mxGeometry>
        </mxCell>
        <mxCell id="vHaJpaE_rv1m4daf2spT-30" value="- com_id" style="text;align=left;verticalAlign=top;spacingLeft=4;spacingRight=4;overflow=hidden;rotatable=0;points=[[0,0.5],[1,0.5]];portConstraint=eastwest;" vertex="1" parent="vHaJpaE_rv1m4daf2spT-29">
          <mxGeometry y="26" width="160" height="26" as="geometry" />
        </mxCell>
        <mxCell id="vHaJpaE_rv1m4daf2spT-31" value="- com_suivi" style="text;align=left;verticalAlign=top;spacingLeft=4;spacingRight=4;overflow=hidden;rotatable=0;points=[[0,0.5],[1,0.5]];portConstraint=eastwest;rounded=0;shadow=0;html=0;" vertex="1" parent="vHaJpaE_rv1m4daf2spT-29">
          <mxGeometry y="52" width="160" height="26" as="geometry" />
        </mxCell>
        <mxCell id="vHaJpaE_rv1m4daf2spT-32" value="- com_date" style="text;align=left;verticalAlign=top;spacingLeft=4;spacingRight=4;overflow=hidden;rotatable=0;points=[[0,0.5],[1,0.5]];portConstraint=eastwest;rounded=0;shadow=0;html=0;" vertex="1" parent="vHaJpaE_rv1m4daf2spT-29">
          <mxGeometry y="78" width="160" height="26" as="geometry" />
        </mxCell>
        <mxCell id="vHaJpaE_rv1m4daf2spT-44" value="" style="line;html=1;strokeWidth=1;align=left;verticalAlign=middle;spacingTop=-1;spacingLeft=3;spacingRight=3;rotatable=0;labelPosition=right;points=[];portConstraint=eastwest;" vertex="1" parent="vHaJpaE_rv1m4daf2spT-29">
          <mxGeometry y="104" width="160" height="6" as="geometry" />
        </mxCell>
        <mxCell id="vHaJpaE_rv1m4daf2spT-45" value="+ crÃ©er _commande()" style="text;align=left;verticalAlign=top;spacingLeft=4;spacingRight=4;overflow=hidden;rotatable=0;points=[[0,0.5],[1,0.5]];portConstraint=eastwest;rounded=0;shadow=0;html=0;" vertex="1" parent="vHaJpaE_rv1m4daf2spT-29">
          <mxGeometry y="110" width="160" height="26" as="geometry" />
        </mxCell>
        <mxCell id="vHaJpaE_rv1m4daf2spT-46" value="+ changer_suivi()" style="text;align=left;verticalAlign=top;spacingLeft=4;spacingRight=4;overflow=hidden;rotatable=0;points=[[0,0.5],[1,0.5]];portConstraint=eastwest;rounded=0;shadow=0;html=0;" vertex="1" parent="vHaJpaE_rv1m4daf2spT-29">
          <mxGeometry y="136" width="160" height="26" as="geometry" />
        </mxCell>
        <mxCell id="vHaJpaE_rv1m4daf2spT-285" style="edgeStyle=orthogonalEdgeStyle;rounded=0;orthogonalLoop=1;jettySize=auto;html=1;entryX=0.5;entryY=0;entryDx=0;entryDy=0;strokeColor=default;align=center;verticalAlign=middle;fontFamily=Helvetica;fontSize=11;fontColor=default;labelBackgroundColor=default;endArrow=none;endFill=0;" edge="1" parent="WIyWlLk6GJQsqaUBKTNV-1" source="vHaJpaE_rv1m4daf2spT-47" target="vHaJpaE_rv1m4daf2spT-29">
          <mxGeometry relative="1" as="geometry" />
        </mxCell>
        <mxCell id="vHaJpaE_rv1m4daf2spT-47" value="+ Livraison" style="swimlane;fontStyle=2;align=center;verticalAlign=top;childLayout=stackLayout;horizontal=1;startSize=26;horizontalStack=0;resizeParent=1;resizeLast=0;collapsible=1;marginBottom=0;rounded=0;shadow=0;strokeWidth=1;" vertex="1" parent="WIyWlLk6GJQsqaUBKTNV-1">
          <mxGeometry x="460" width="160" height="170" as="geometry">
            <mxRectangle x="130" y="130" width="160" height="26" as="alternateBounds" />
          </mxGeometry>
        </mxCell>
        <mxCell id="vHaJpaE_rv1m4daf2spT-48" value="- liv_id" style="text;align=left;verticalAlign=top;spacingLeft=4;spacingRight=4;overflow=hidden;rotatable=0;points=[[0,0.5],[1,0.5]];portConstraint=eastwest;" vertex="1" parent="vHaJpaE_rv1m4daf2spT-47">
          <mxGeometry y="26" width="160" height="26" as="geometry" />
        </mxCell>
        <mxCell id="vHaJpaE_rv1m4daf2spT-49" value="- liv_adresse" style="text;align=left;verticalAlign=top;spacingLeft=4;spacingRight=4;overflow=hidden;rotatable=0;points=[[0,0.5],[1,0.5]];portConstraint=eastwest;rounded=0;shadow=0;html=0;" vertex="1" parent="vHaJpaE_rv1m4daf2spT-47">
          <mxGeometry y="52" width="160" height="26" as="geometry" />
        </mxCell>
        <mxCell id="vHaJpaE_rv1m4daf2spT-50" value="- liv_date" style="text;align=left;verticalAlign=top;spacingLeft=4;spacingRight=4;overflow=hidden;rotatable=0;points=[[0,0.5],[1,0.5]];portConstraint=eastwest;rounded=0;shadow=0;html=0;" vertex="1" parent="vHaJpaE_rv1m4daf2spT-47">
          <mxGeometry y="78" width="160" height="26" as="geometry" />
        </mxCell>
        <mxCell id="vHaJpaE_rv1m4daf2spT-54" value="- liv_status" style="text;align=left;verticalAlign=top;spacingLeft=4;spacingRight=4;overflow=hidden;rotatable=0;points=[[0,0.5],[1,0.5]];portConstraint=eastwest;rounded=0;shadow=0;html=0;" vertex="1" parent="vHaJpaE_rv1m4daf2spT-47">
          <mxGeometry y="104" width="160" height="26" as="geometry" />
        </mxCell>
        <mxCell id="vHaJpaE_rv1m4daf2spT-51" value="" style="line;html=1;strokeWidth=1;align=left;verticalAlign=middle;spacingTop=-1;spacingLeft=3;spacingRight=3;rotatable=0;labelPosition=right;points=[];portConstraint=eastwest;" vertex="1" parent="vHaJpaE_rv1m4daf2spT-47">
          <mxGeometry y="130" width="160" height="6" as="geometry" />
        </mxCell>
        <mxCell id="vHaJpaE_rv1m4daf2spT-53" value="+ changer_status()" style="text;align=left;verticalAlign=top;spacingLeft=4;spacingRight=4;overflow=hidden;rotatable=0;points=[[0,0.5],[1,0.5]];portConstraint=eastwest;rounded=0;shadow=0;html=0;" vertex="1" parent="vHaJpaE_rv1m4daf2spT-47">
          <mxGeometry y="136" width="160" height="26" as="geometry" />
        </mxCell>
        <mxCell id="vHaJpaE_rv1m4daf2spT-62" value="+ Paiement" style="swimlane;fontStyle=2;align=center;verticalAlign=top;childLayout=stackLayout;horizontal=1;startSize=26;horizontalStack=0;resizeParent=1;resizeLast=0;collapsible=1;marginBottom=0;rounded=0;shadow=0;strokeWidth=1;" vertex="1" parent="WIyWlLk6GJQsqaUBKTNV-1">
          <mxGeometry x="710" width="160" height="170" as="geometry">
            <mxRectangle x="130" y="130" width="160" height="26" as="alternateBounds" />
          </mxGeometry>
        </mxCell>
        <mxCell id="vHaJpaE_rv1m4daf2spT-63" value="- paie_id" style="text;align=left;verticalAlign=top;spacingLeft=4;spacingRight=4;overflow=hidden;rotatable=0;points=[[0,0.5],[1,0.5]];portConstraint=eastwest;" vertex="1" parent="vHaJpaE_rv1m4daf2spT-62">
          <mxGeometry y="26" width="160" height="26" as="geometry" />
        </mxCell>
        <mxCell id="vHaJpaE_rv1m4daf2spT-64" value="- paie_mode" style="text;align=left;verticalAlign=top;spacingLeft=4;spacingRight=4;overflow=hidden;rotatable=0;points=[[0,0.5],[1,0.5]];portConstraint=eastwest;rounded=0;shadow=0;html=0;" vertex="1" parent="vHaJpaE_rv1m4daf2spT-62">
          <mxGeometry y="52" width="160" height="26" as="geometry" />
        </mxCell>
        <mxCell id="vHaJpaE_rv1m4daf2spT-69" value="- paie_date" style="text;align=left;verticalAlign=top;spacingLeft=4;spacingRight=4;overflow=hidden;rotatable=0;points=[[0,0.5],[1,0.5]];portConstraint=eastwest;rounded=0;shadow=0;html=0;" vertex="1" parent="vHaJpaE_rv1m4daf2spT-62">
          <mxGeometry y="78" width="160" height="26" as="geometry" />
        </mxCell>
        <mxCell id="vHaJpaE_rv1m4daf2spT-65" value="- paie_status" style="text;align=left;verticalAlign=top;spacingLeft=4;spacingRight=4;overflow=hidden;rotatable=0;points=[[0,0.5],[1,0.5]];portConstraint=eastwest;rounded=0;shadow=0;html=0;" vertex="1" parent="vHaJpaE_rv1m4daf2spT-62">
          <mxGeometry y="104" width="160" height="26" as="geometry" />
        </mxCell>
        <mxCell id="vHaJpaE_rv1m4daf2spT-66" value="" style="line;html=1;strokeWidth=1;align=left;verticalAlign=middle;spacingTop=-1;spacingLeft=3;spacingRight=3;rotatable=0;labelPosition=right;points=[];portConstraint=eastwest;" vertex="1" parent="vHaJpaE_rv1m4daf2spT-62">
          <mxGeometry y="130" width="160" height="6" as="geometry" />
        </mxCell>
        <mxCell id="vHaJpaE_rv1m4daf2spT-68" value="+ changer_status()" style="text;align=left;verticalAlign=top;spacingLeft=4;spacingRight=4;overflow=hidden;rotatable=0;points=[[0,0.5],[1,0.5]];portConstraint=eastwest;rounded=0;shadow=0;html=0;" vertex="1" parent="vHaJpaE_rv1m4daf2spT-62">
          <mxGeometry y="136" width="160" height="26" as="geometry" />
        </mxCell>
        <mxCell id="vHaJpaE_rv1m4daf2spT-288" style="edgeStyle=orthogonalEdgeStyle;rounded=0;orthogonalLoop=1;jettySize=auto;html=1;entryX=0.5;entryY=0;entryDx=0;entryDy=0;strokeColor=default;align=center;verticalAlign=middle;fontFamily=Helvetica;fontSize=11;fontColor=default;labelBackgroundColor=default;endArrow=none;endFill=0;" edge="1" parent="WIyWlLk6GJQsqaUBKTNV-1" source="vHaJpaE_rv1m4daf2spT-70" target="vHaJpaE_rv1m4daf2spT-89">
          <mxGeometry relative="1" as="geometry" />
        </mxCell>
        <mxCell id="vHaJpaE_rv1m4daf2spT-70" value="+ Facture" style="swimlane;fontStyle=2;align=center;verticalAlign=top;childLayout=stackLayout;horizontal=1;startSize=26;horizontalStack=0;resizeParent=1;resizeLast=0;collapsible=1;marginBottom=0;rounded=0;shadow=0;strokeWidth=1;" vertex="1" parent="WIyWlLk6GJQsqaUBKTNV-1">
          <mxGeometry x="710" y="245" width="160" height="225" as="geometry">
            <mxRectangle x="130" y="130" width="160" height="26" as="alternateBounds" />
          </mxGeometry>
        </mxCell>
        <mxCell id="vHaJpaE_rv1m4daf2spT-71" value="- fac_id" style="text;align=left;verticalAlign=top;spacingLeft=4;spacingRight=4;overflow=hidden;rotatable=0;points=[[0,0.5],[1,0.5]];portConstraint=eastwest;" vertex="1" parent="vHaJpaE_rv1m4daf2spT-70">
          <mxGeometry y="26" width="160" height="26" as="geometry" />
        </mxCell>
        <mxCell id="vHaJpaE_rv1m4daf2spT-72" value="- fac_tot_ttc" style="text;align=left;verticalAlign=top;spacingLeft=4;spacingRight=4;overflow=hidden;rotatable=0;points=[[0,0.5],[1,0.5]];portConstraint=eastwest;rounded=0;shadow=0;html=0;" vertex="1" parent="vHaJpaE_rv1m4daf2spT-70">
          <mxGeometry y="52" width="160" height="26" as="geometry" />
        </mxCell>
        <mxCell id="vHaJpaE_rv1m4daf2spT-73" value="- fac_tot_prix_ht" style="text;align=left;verticalAlign=top;spacingLeft=4;spacingRight=4;overflow=hidden;rotatable=0;points=[[0,0.5],[1,0.5]];portConstraint=eastwest;rounded=0;shadow=0;html=0;" vertex="1" parent="vHaJpaE_rv1m4daf2spT-70">
          <mxGeometry y="78" width="160" height="26" as="geometry" />
        </mxCell>
        <mxCell id="vHaJpaE_rv1m4daf2spT-75" value="- fac_date" style="text;align=left;verticalAlign=top;spacingLeft=4;spacingRight=4;overflow=hidden;rotatable=0;points=[[0,0.5],[1,0.5]];portConstraint=eastwest;rounded=0;shadow=0;html=0;" vertex="1" parent="vHaJpaE_rv1m4daf2spT-70">
          <mxGeometry y="104" width="160" height="26" as="geometry" />
        </mxCell>
        <mxCell id="vHaJpaE_rv1m4daf2spT-76" value="- fac_adresse" style="text;align=left;verticalAlign=top;spacingLeft=4;spacingRight=4;overflow=hidden;rotatable=0;points=[[0,0.5],[1,0.5]];portConstraint=eastwest;rounded=0;shadow=0;html=0;" vertex="1" parent="vHaJpaE_rv1m4daf2spT-70">
          <mxGeometry y="130" width="160" height="26" as="geometry" />
        </mxCell>
        <mxCell id="vHaJpaE_rv1m4daf2spT-77" value="- fac_tva" style="text;align=left;verticalAlign=top;spacingLeft=4;spacingRight=4;overflow=hidden;rotatable=0;points=[[0,0.5],[1,0.5]];portConstraint=eastwest;rounded=0;shadow=0;html=0;" vertex="1" parent="vHaJpaE_rv1m4daf2spT-70">
          <mxGeometry y="156" width="160" height="26" as="geometry" />
        </mxCell>
        <mxCell id="vHaJpaE_rv1m4daf2spT-74" value="" style="line;html=1;strokeWidth=1;align=left;verticalAlign=middle;spacingTop=-1;spacingLeft=3;spacingRight=3;rotatable=0;labelPosition=right;points=[];portConstraint=eastwest;" vertex="1" parent="vHaJpaE_rv1m4daf2spT-70">
          <mxGeometry y="182" width="160" height="6" as="geometry" />
        </mxCell>
        <mxCell id="vHaJpaE_rv1m4daf2spT-78" value="+ genere_facture()" style="text;align=left;verticalAlign=top;spacingLeft=4;spacingRight=4;overflow=hidden;rotatable=0;points=[[0,0.5],[1,0.5]];portConstraint=eastwest;rounded=0;shadow=0;html=0;" vertex="1" parent="vHaJpaE_rv1m4daf2spT-70">
          <mxGeometry y="188" width="160" height="26" as="geometry" />
        </mxCell>
        <mxCell id="vHaJpaE_rv1m4daf2spT-80" value="+ Contient" style="swimlane;fontStyle=2;align=center;verticalAlign=top;childLayout=stackLayout;horizontal=1;startSize=26;horizontalStack=0;resizeParent=1;resizeLast=0;collapsible=1;marginBottom=0;rounded=0;shadow=0;strokeWidth=1;" vertex="1" parent="WIyWlLk6GJQsqaUBKTNV-1">
          <mxGeometry x="460" y="440" width="160" height="195" as="geometry">
            <mxRectangle x="130" y="130" width="160" height="26" as="alternateBounds" />
          </mxGeometry>
        </mxCell>
        <mxCell id="vHaJpaE_rv1m4daf2spT-81" value="- cont_id" style="text;align=left;verticalAlign=top;spacingLeft=4;spacingRight=4;overflow=hidden;rotatable=0;points=[[0,0.5],[1,0.5]];portConstraint=eastwest;" vertex="1" parent="vHaJpaE_rv1m4daf2spT-80">
          <mxGeometry y="26" width="160" height="26" as="geometry" />
        </mxCell>
        <mxCell id="vHaJpaE_rv1m4daf2spT-82" value="- prod_quant" style="text;align=left;verticalAlign=top;spacingLeft=4;spacingRight=4;overflow=hidden;rotatable=0;points=[[0,0.5],[1,0.5]];portConstraint=eastwest;rounded=0;shadow=0;html=0;" vertex="1" parent="vHaJpaE_rv1m4daf2spT-80">
          <mxGeometry y="52" width="160" height="26" as="geometry" />
        </mxCell>
        <mxCell id="vHaJpaE_rv1m4daf2spT-289" style="edgeStyle=orthogonalEdgeStyle;rounded=0;orthogonalLoop=1;jettySize=auto;html=1;strokeColor=default;align=center;verticalAlign=middle;fontFamily=Helvetica;fontSize=11;fontColor=default;labelBackgroundColor=default;endArrow=none;endFill=0;dashed=1;" edge="1" parent="vHaJpaE_rv1m4daf2spT-80" source="vHaJpaE_rv1m4daf2spT-83">
          <mxGeometry relative="1" as="geometry">
            <mxPoint x="330" y="80" as="targetPoint" />
          </mxGeometry>
        </mxCell>
        <mxCell id="vHaJpaE_rv1m4daf2spT-83" value="- prod_pu" style="text;align=left;verticalAlign=top;spacingLeft=4;spacingRight=4;overflow=hidden;rotatable=0;points=[[0,0.5],[1,0.5]];portConstraint=eastwest;rounded=0;shadow=0;html=0;" vertex="1" parent="vHaJpaE_rv1m4daf2spT-80">
          <mxGeometry y="78" width="160" height="26" as="geometry" />
        </mxCell>
        <mxCell id="vHaJpaE_rv1m4daf2spT-84" value="- prod_pu_ht" style="text;align=left;verticalAlign=top;spacingLeft=4;spacingRight=4;overflow=hidden;rotatable=0;points=[[0,0.5],[1,0.5]];portConstraint=eastwest;rounded=0;shadow=0;html=0;" vertex="1" parent="vHaJpaE_rv1m4daf2spT-80">
          <mxGeometry y="104" width="160" height="26" as="geometry" />
        </mxCell>
        <mxCell id="vHaJpaE_rv1m4daf2spT-85" value="- prod_solde" style="text;align=left;verticalAlign=top;spacingLeft=4;spacingRight=4;overflow=hidden;rotatable=0;points=[[0,0.5],[1,0.5]];portConstraint=eastwest;rounded=0;shadow=0;html=0;" vertex="1" parent="vHaJpaE_rv1m4daf2spT-80">
          <mxGeometry y="130" width="160" height="26" as="geometry" />
        </mxCell>
        <mxCell id="vHaJpaE_rv1m4daf2spT-87" value="" style="line;html=1;strokeWidth=1;align=left;verticalAlign=middle;spacingTop=-1;spacingLeft=3;spacingRight=3;rotatable=0;labelPosition=right;points=[];portConstraint=eastwest;" vertex="1" parent="vHaJpaE_rv1m4daf2spT-80">
          <mxGeometry y="156" width="160" height="6" as="geometry" />
        </mxCell>
        <mxCell id="vHaJpaE_rv1m4daf2spT-89" value="+ produit" style="swimlane;fontStyle=2;align=center;verticalAlign=top;childLayout=stackLayout;horizontal=1;startSize=26;horizontalStack=0;resizeParent=1;resizeLast=0;collapsible=1;marginBottom=0;rounded=0;shadow=0;strokeWidth=1;" vertex="1" parent="WIyWlLk6GJQsqaUBKTNV-1">
          <mxGeometry x="710" y="585" width="160" height="474" as="geometry">
            <mxRectangle x="130" y="130" width="160" height="26" as="alternateBounds" />
          </mxGeometry>
        </mxCell>
        <mxCell id="vHaJpaE_rv1m4daf2spT-90" value="- prod_id" style="text;align=left;verticalAlign=top;spacingLeft=4;spacingRight=4;overflow=hidden;rotatable=0;points=[[0,0.5],[1,0.5]];portConstraint=eastwest;" vertex="1" parent="vHaJpaE_rv1m4daf2spT-89">
          <mxGeometry y="26" width="160" height="26" as="geometry" />
        </mxCell>
        <mxCell id="vHaJpaE_rv1m4daf2spT-91" value="+ prod_ref" style="text;align=left;verticalAlign=top;spacingLeft=4;spacingRight=4;overflow=hidden;rotatable=0;points=[[0,0.5],[1,0.5]];portConstraint=eastwest;rounded=0;shadow=0;html=0;" vertex="1" parent="vHaJpaE_rv1m4daf2spT-89">
          <mxGeometry y="52" width="160" height="26" as="geometry" />
        </mxCell>
        <mxCell id="vHaJpaE_rv1m4daf2spT-92" value="+ prod_lib" style="text;align=left;verticalAlign=top;spacingLeft=4;spacingRight=4;overflow=hidden;rotatable=0;points=[[0,0.5],[1,0.5]];portConstraint=eastwest;rounded=0;shadow=0;html=0;" vertex="1" parent="vHaJpaE_rv1m4daf2spT-89">
          <mxGeometry y="78" width="160" height="26" as="geometry" />
        </mxCell>
        <mxCell id="vHaJpaE_rv1m4daf2spT-93" value="+ prod_desc" style="text;align=left;verticalAlign=top;spacingLeft=4;spacingRight=4;overflow=hidden;rotatable=0;points=[[0,0.5],[1,0.5]];portConstraint=eastwest;rounded=0;shadow=0;html=0;" vertex="1" parent="vHaJpaE_rv1m4daf2spT-89">
          <mxGeometry y="104" width="160" height="26" as="geometry" />
        </mxCell>
        <mxCell id="vHaJpaE_rv1m4daf2spT-94" value="- prod_prix" style="text;align=left;verticalAlign=top;spacingLeft=4;spacingRight=4;overflow=hidden;rotatable=0;points=[[0,0.5],[1,0.5]];portConstraint=eastwest;rounded=0;shadow=0;html=0;" vertex="1" parent="vHaJpaE_rv1m4daf2spT-89">
          <mxGeometry y="130" width="160" height="26" as="geometry" />
        </mxCell>
        <mxCell id="vHaJpaE_rv1m4daf2spT-96" value="- prod_prix_ht" style="text;align=left;verticalAlign=top;spacingLeft=4;spacingRight=4;overflow=hidden;rotatable=0;points=[[0,0.5],[1,0.5]];portConstraint=eastwest;rounded=0;shadow=0;html=0;" vertex="1" parent="vHaJpaE_rv1m4daf2spT-89">
          <mxGeometry y="156" width="160" height="26" as="geometry" />
        </mxCell>
        <mxCell id="vHaJpaE_rv1m4daf2spT-97" value="+ prod_marque" style="text;align=left;verticalAlign=top;spacingLeft=4;spacingRight=4;overflow=hidden;rotatable=0;points=[[0,0.5],[1,0.5]];portConstraint=eastwest;rounded=0;shadow=0;html=0;" vertex="1" parent="vHaJpaE_rv1m4daf2spT-89">
          <mxGeometry y="182" width="160" height="26" as="geometry" />
        </mxCell>
        <mxCell id="vHaJpaE_rv1m4daf2spT-98" value="+ prod_modele" style="text;align=left;verticalAlign=top;spacingLeft=4;spacingRight=4;overflow=hidden;rotatable=0;points=[[0,0.5],[1,0.5]];portConstraint=eastwest;rounded=0;shadow=0;html=0;" vertex="1" parent="vHaJpaE_rv1m4daf2spT-89">
          <mxGeometry y="208" width="160" height="26" as="geometry" />
        </mxCell>
        <mxCell id="vHaJpaE_rv1m4daf2spT-99" value="+ prod_couleur" style="text;align=left;verticalAlign=top;spacingLeft=4;spacingRight=4;overflow=hidden;rotatable=0;points=[[0,0.5],[1,0.5]];portConstraint=eastwest;rounded=0;shadow=0;html=0;" vertex="1" parent="vHaJpaE_rv1m4daf2spT-89">
          <mxGeometry y="234" width="160" height="26" as="geometry" />
        </mxCell>
        <mxCell id="vHaJpaE_rv1m4daf2spT-100" value="+ prod_hauteur" style="text;align=left;verticalAlign=top;spacingLeft=4;spacingRight=4;overflow=hidden;rotatable=0;points=[[0,0.5],[1,0.5]];portConstraint=eastwest;rounded=0;shadow=0;html=0;" vertex="1" parent="vHaJpaE_rv1m4daf2spT-89">
          <mxGeometry y="260" width="160" height="26" as="geometry" />
        </mxCell>
        <mxCell id="vHaJpaE_rv1m4daf2spT-101" value="+ prod_largeur" style="text;align=left;verticalAlign=top;spacingLeft=4;spacingRight=4;overflow=hidden;rotatable=0;points=[[0,0.5],[1,0.5]];portConstraint=eastwest;rounded=0;shadow=0;html=0;" vertex="1" parent="vHaJpaE_rv1m4daf2spT-89">
          <mxGeometry y="286" width="160" height="26" as="geometry" />
        </mxCell>
        <mxCell id="vHaJpaE_rv1m4daf2spT-102" value="+ prod_profondeur" style="text;align=left;verticalAlign=top;spacingLeft=4;spacingRight=4;overflow=hidden;rotatable=0;points=[[0,0.5],[1,0.5]];portConstraint=eastwest;rounded=0;shadow=0;html=0;" vertex="1" parent="vHaJpaE_rv1m4daf2spT-89">
          <mxGeometry y="312" width="160" height="26" as="geometry" />
        </mxCell>
        <mxCell id="vHaJpaE_rv1m4daf2spT-103" value="+ prod_poid" style="text;align=left;verticalAlign=top;spacingLeft=4;spacingRight=4;overflow=hidden;rotatable=0;points=[[0,0.5],[1,0.5]];portConstraint=eastwest;rounded=0;shadow=0;html=0;" vertex="1" parent="vHaJpaE_rv1m4daf2spT-89">
          <mxGeometry y="338" width="160" height="26" as="geometry" />
        </mxCell>
        <mxCell id="vHaJpaE_rv1m4daf2spT-104" value="- prod_solde" style="text;align=left;verticalAlign=top;spacingLeft=4;spacingRight=4;overflow=hidden;rotatable=0;points=[[0,0.5],[1,0.5]];portConstraint=eastwest;rounded=0;shadow=0;html=0;" vertex="1" parent="vHaJpaE_rv1m4daf2spT-89">
          <mxGeometry y="364" width="160" height="26" as="geometry" />
        </mxCell>
        <mxCell id="vHaJpaE_rv1m4daf2spT-95" value="" style="line;html=1;strokeWidth=1;align=left;verticalAlign=middle;spacingTop=-1;spacingLeft=3;spacingRight=3;rotatable=0;labelPosition=right;points=[];portConstraint=eastwest;" vertex="1" parent="vHaJpaE_rv1m4daf2spT-89">
          <mxGeometry y="390" width="160" height="6" as="geometry" />
        </mxCell>
        <mxCell id="vHaJpaE_rv1m4daf2spT-105" value="+ ajouter_produit()" style="text;align=left;verticalAlign=top;spacingLeft=4;spacingRight=4;overflow=hidden;rotatable=0;points=[[0,0.5],[1,0.5]];portConstraint=eastwest;rounded=0;shadow=0;html=0;" vertex="1" parent="vHaJpaE_rv1m4daf2spT-89">
          <mxGeometry y="396" width="160" height="26" as="geometry" />
        </mxCell>
        <mxCell id="vHaJpaE_rv1m4daf2spT-106" value="+ modifier_produit()" style="text;align=left;verticalAlign=top;spacingLeft=4;spacingRight=4;overflow=hidden;rotatable=0;points=[[0,0.5],[1,0.5]];portConstraint=eastwest;rounded=0;shadow=0;html=0;" vertex="1" parent="vHaJpaE_rv1m4daf2spT-89">
          <mxGeometry y="422" width="160" height="26" as="geometry" />
        </mxCell>
        <mxCell id="vHaJpaE_rv1m4daf2spT-107" value="+ supprimer_produit()" style="text;align=left;verticalAlign=top;spacingLeft=4;spacingRight=4;overflow=hidden;rotatable=0;points=[[0,0.5],[1,0.5]];portConstraint=eastwest;rounded=0;shadow=0;html=0;" vertex="1" parent="vHaJpaE_rv1m4daf2spT-89">
          <mxGeometry y="448" width="160" height="26" as="geometry" />
        </mxCell>
        <mxCell id="vHaJpaE_rv1m4daf2spT-108" value="+ Sous_categorie" style="swimlane;fontStyle=2;align=center;verticalAlign=top;childLayout=stackLayout;horizontal=1;startSize=26;horizontalStack=0;resizeParent=1;resizeLast=0;collapsible=1;marginBottom=0;rounded=0;shadow=0;strokeWidth=1;" vertex="1" parent="WIyWlLk6GJQsqaUBKTNV-1">
          <mxGeometry x="460" y="690" width="160" height="214" as="geometry">
            <mxRectangle x="130" y="130" width="160" height="26" as="alternateBounds" />
          </mxGeometry>
        </mxCell>
        <mxCell id="vHaJpaE_rv1m4daf2spT-109" value="- scate_id" style="text;align=left;verticalAlign=top;spacingLeft=4;spacingRight=4;overflow=hidden;rotatable=0;points=[[0,0.5],[1,0.5]];portConstraint=eastwest;" vertex="1" parent="vHaJpaE_rv1m4daf2spT-108">
          <mxGeometry y="26" width="160" height="26" as="geometry" />
        </mxCell>
        <mxCell id="vHaJpaE_rv1m4daf2spT-110" value="+ scate_lib" style="text;align=left;verticalAlign=top;spacingLeft=4;spacingRight=4;overflow=hidden;rotatable=0;points=[[0,0.5],[1,0.5]];portConstraint=eastwest;rounded=0;shadow=0;html=0;" vertex="1" parent="vHaJpaE_rv1m4daf2spT-108">
          <mxGeometry y="52" width="160" height="26" as="geometry" />
        </mxCell>
        <mxCell id="vHaJpaE_rv1m4daf2spT-115" value="+ scate_desc" style="text;align=left;verticalAlign=top;spacingLeft=4;spacingRight=4;overflow=hidden;rotatable=0;points=[[0,0.5],[1,0.5]];portConstraint=eastwest;rounded=0;shadow=0;html=0;" vertex="1" parent="vHaJpaE_rv1m4daf2spT-108">
          <mxGeometry y="78" width="160" height="26" as="geometry" />
        </mxCell>
        <mxCell id="vHaJpaE_rv1m4daf2spT-111" value="+ scate_photo" style="text;align=left;verticalAlign=top;spacingLeft=4;spacingRight=4;overflow=hidden;rotatable=0;points=[[0,0.5],[1,0.5]];portConstraint=eastwest;rounded=0;shadow=0;html=0;" vertex="1" parent="vHaJpaE_rv1m4daf2spT-108">
          <mxGeometry y="104" width="160" height="26" as="geometry" />
        </mxCell>
        <mxCell id="vHaJpaE_rv1m4daf2spT-112" value="" style="line;html=1;strokeWidth=1;align=left;verticalAlign=middle;spacingTop=-1;spacingLeft=3;spacingRight=3;rotatable=0;labelPosition=right;points=[];portConstraint=eastwest;" vertex="1" parent="vHaJpaE_rv1m4daf2spT-108">
          <mxGeometry y="130" width="160" height="6" as="geometry" />
        </mxCell>
        <mxCell id="vHaJpaE_rv1m4daf2spT-113" value="+ ajouter_sous_categorie()" style="text;align=left;verticalAlign=top;spacingLeft=4;spacingRight=4;overflow=hidden;rotatable=0;points=[[0,0.5],[1,0.5]];portConstraint=eastwest;rounded=0;shadow=0;html=0;" vertex="1" parent="vHaJpaE_rv1m4daf2spT-108">
          <mxGeometry y="136" width="160" height="26" as="geometry" />
        </mxCell>
        <mxCell id="vHaJpaE_rv1m4daf2spT-114" value="+ modifier_sous_categorie()" style="text;align=left;verticalAlign=top;spacingLeft=4;spacingRight=4;overflow=hidden;rotatable=0;points=[[0,0.5],[1,0.5]];portConstraint=eastwest;rounded=0;shadow=0;html=0;" vertex="1" parent="vHaJpaE_rv1m4daf2spT-108">
          <mxGeometry y="162" width="160" height="26" as="geometry" />
        </mxCell>
        <mxCell id="vHaJpaE_rv1m4daf2spT-116" value="+ supp_sous_categorie" style="text;align=left;verticalAlign=top;spacingLeft=4;spacingRight=4;overflow=hidden;rotatable=0;points=[[0,0.5],[1,0.5]];portConstraint=eastwest;rounded=0;shadow=0;html=0;" vertex="1" parent="vHaJpaE_rv1m4daf2spT-108">
          <mxGeometry y="188" width="160" height="26" as="geometry" />
        </mxCell>
        <mxCell id="vHaJpaE_rv1m4daf2spT-117" value="+ Categorie" style="swimlane;fontStyle=2;align=center;verticalAlign=top;childLayout=stackLayout;horizontal=1;startSize=26;horizontalStack=0;resizeParent=1;resizeLast=0;collapsible=1;marginBottom=0;rounded=0;shadow=0;strokeWidth=1;" vertex="1" parent="WIyWlLk6GJQsqaUBKTNV-1">
          <mxGeometry x="460" y="1001" width="160" height="214" as="geometry">
            <mxRectangle x="130" y="130" width="160" height="26" as="alternateBounds" />
          </mxGeometry>
        </mxCell>
        <mxCell id="vHaJpaE_rv1m4daf2spT-118" value="- cate_id" style="text;align=left;verticalAlign=top;spacingLeft=4;spacingRight=4;overflow=hidden;rotatable=0;points=[[0,0.5],[1,0.5]];portConstraint=eastwest;" vertex="1" parent="vHaJpaE_rv1m4daf2spT-117">
          <mxGeometry y="26" width="160" height="26" as="geometry" />
        </mxCell>
        <mxCell id="vHaJpaE_rv1m4daf2spT-119" value="+ cate_lib" style="text;align=left;verticalAlign=top;spacingLeft=4;spacingRight=4;overflow=hidden;rotatable=0;points=[[0,0.5],[1,0.5]];portConstraint=eastwest;rounded=0;shadow=0;html=0;" vertex="1" parent="vHaJpaE_rv1m4daf2spT-117">
          <mxGeometry y="52" width="160" height="26" as="geometry" />
        </mxCell>
        <mxCell id="vHaJpaE_rv1m4daf2spT-120" value="+ cate_desc" style="text;align=left;verticalAlign=top;spacingLeft=4;spacingRight=4;overflow=hidden;rotatable=0;points=[[0,0.5],[1,0.5]];portConstraint=eastwest;rounded=0;shadow=0;html=0;" vertex="1" parent="vHaJpaE_rv1m4daf2spT-117">
          <mxGeometry y="78" width="160" height="26" as="geometry" />
        </mxCell>
        <mxCell id="vHaJpaE_rv1m4daf2spT-121" value="+ cate_photo" style="text;align=left;verticalAlign=top;spacingLeft=4;spacingRight=4;overflow=hidden;rotatable=0;points=[[0,0.5],[1,0.5]];portConstraint=eastwest;rounded=0;shadow=0;html=0;" vertex="1" parent="vHaJpaE_rv1m4daf2spT-117">
          <mxGeometry y="104" width="160" height="26" as="geometry" />
        </mxCell>
        <mxCell id="vHaJpaE_rv1m4daf2spT-122" value="" style="line;html=1;strokeWidth=1;align=left;verticalAlign=middle;spacingTop=-1;spacingLeft=3;spacingRight=3;rotatable=0;labelPosition=right;points=[];portConstraint=eastwest;" vertex="1" parent="vHaJpaE_rv1m4daf2spT-117">
          <mxGeometry y="130" width="160" height="6" as="geometry" />
        </mxCell>
        <mxCell id="vHaJpaE_rv1m4daf2spT-123" value="+ ajouter_categorie()" style="text;align=left;verticalAlign=top;spacingLeft=4;spacingRight=4;overflow=hidden;rotatable=0;points=[[0,0.5],[1,0.5]];portConstraint=eastwest;rounded=0;shadow=0;html=0;" vertex="1" parent="vHaJpaE_rv1m4daf2spT-117">
          <mxGeometry y="136" width="160" height="26" as="geometry" />
        </mxCell>
        <mxCell id="vHaJpaE_rv1m4daf2spT-124" value="+ modifier_categorie()" style="text;align=left;verticalAlign=top;spacingLeft=4;spacingRight=4;overflow=hidden;rotatable=0;points=[[0,0.5],[1,0.5]];portConstraint=eastwest;rounded=0;shadow=0;html=0;" vertex="1" parent="vHaJpaE_rv1m4daf2spT-117">
          <mxGeometry y="162" width="160" height="26" as="geometry" />
        </mxCell>
        <mxCell id="vHaJpaE_rv1m4daf2spT-125" value="+ supprimer_categorie()" style="text;align=left;verticalAlign=top;spacingLeft=4;spacingRight=4;overflow=hidden;rotatable=0;points=[[0,0.5],[1,0.5]];portConstraint=eastwest;rounded=0;shadow=0;html=0;" vertex="1" parent="vHaJpaE_rv1m4daf2spT-117">
          <mxGeometry y="188" width="160" height="26" as="geometry" />
        </mxCell>
        <mxCell id="vHaJpaE_rv1m4daf2spT-126" value="+ Multi_media" style="swimlane;fontStyle=2;align=center;verticalAlign=top;childLayout=stackLayout;horizontal=1;startSize=26;horizontalStack=0;resizeParent=1;resizeLast=0;collapsible=1;marginBottom=0;rounded=0;shadow=0;strokeWidth=1;" vertex="1" parent="WIyWlLk6GJQsqaUBKTNV-1">
          <mxGeometry x="710" y="1145" width="160" height="110" as="geometry">
            <mxRectangle x="130" y="130" width="160" height="26" as="alternateBounds" />
          </mxGeometry>
        </mxCell>
        <mxCell id="vHaJpaE_rv1m4daf2spT-127" value="- media_id" style="text;align=left;verticalAlign=top;spacingLeft=4;spacingRight=4;overflow=hidden;rotatable=0;points=[[0,0.5],[1,0.5]];portConstraint=eastwest;" vertex="1" parent="vHaJpaE_rv1m4daf2spT-126">
          <mxGeometry y="26" width="160" height="26" as="geometry" />
        </mxCell>
        <mxCell id="vHaJpaE_rv1m4daf2spT-128" value="- media_url" style="text;align=left;verticalAlign=top;spacingLeft=4;spacingRight=4;overflow=hidden;rotatable=0;points=[[0,0.5],[1,0.5]];portConstraint=eastwest;rounded=0;shadow=0;html=0;" vertex="1" parent="vHaJpaE_rv1m4daf2spT-126">
          <mxGeometry y="52" width="160" height="26" as="geometry" />
        </mxCell>
        <mxCell id="vHaJpaE_rv1m4daf2spT-131" value="" style="line;html=1;strokeWidth=1;align=left;verticalAlign=middle;spacingTop=-1;spacingLeft=3;spacingRight=3;rotatable=0;labelPosition=right;points=[];portConstraint=eastwest;" vertex="1" parent="vHaJpaE_rv1m4daf2spT-126">
          <mxGeometry y="78" width="160" height="6" as="geometry" />
        </mxCell>
        <mxCell id="vHaJpaE_rv1m4daf2spT-135" value="+ Fournisseur" style="swimlane;fontStyle=2;align=center;verticalAlign=top;childLayout=stackLayout;horizontal=1;startSize=26;horizontalStack=0;resizeParent=1;resizeLast=0;collapsible=1;marginBottom=0;rounded=0;shadow=0;strokeWidth=1;" vertex="1" parent="WIyWlLk6GJQsqaUBKTNV-1">
          <mxGeometry x="980" y="360" width="160" height="318" as="geometry">
            <mxRectangle x="130" y="130" width="160" height="26" as="alternateBounds" />
          </mxGeometry>
        </mxCell>
        <mxCell id="vHaJpaE_rv1m4daf2spT-136" value="- fourni_id" style="text;align=left;verticalAlign=top;spacingLeft=4;spacingRight=4;overflow=hidden;rotatable=0;points=[[0,0.5],[1,0.5]];portConstraint=eastwest;" vertex="1" parent="vHaJpaE_rv1m4daf2spT-135">
          <mxGeometry y="26" width="160" height="26" as="geometry" />
        </mxCell>
        <mxCell id="vHaJpaE_rv1m4daf2spT-137" value="- fourni_ref" style="text;align=left;verticalAlign=top;spacingLeft=4;spacingRight=4;overflow=hidden;rotatable=0;points=[[0,0.5],[1,0.5]];portConstraint=eastwest;rounded=0;shadow=0;html=0;" vertex="1" parent="vHaJpaE_rv1m4daf2spT-135">
          <mxGeometry y="52" width="160" height="26" as="geometry" />
        </mxCell>
        <mxCell id="vHaJpaE_rv1m4daf2spT-138" value="- fourni_nom" style="text;align=left;verticalAlign=top;spacingLeft=4;spacingRight=4;overflow=hidden;rotatable=0;points=[[0,0.5],[1,0.5]];portConstraint=eastwest;rounded=0;shadow=0;html=0;" vertex="1" parent="vHaJpaE_rv1m4daf2spT-135">
          <mxGeometry y="78" width="160" height="26" as="geometry" />
        </mxCell>
        <mxCell id="vHaJpaE_rv1m4daf2spT-139" value="- fourni_adresse" style="text;align=left;verticalAlign=top;spacingLeft=4;spacingRight=4;overflow=hidden;rotatable=0;points=[[0,0.5],[1,0.5]];portConstraint=eastwest;rounded=0;shadow=0;html=0;" vertex="1" parent="vHaJpaE_rv1m4daf2spT-135">
          <mxGeometry y="104" width="160" height="26" as="geometry" />
        </mxCell>
        <mxCell id="vHaJpaE_rv1m4daf2spT-140" value="- fourni_ville" style="text;align=left;verticalAlign=top;spacingLeft=4;spacingRight=4;overflow=hidden;rotatable=0;points=[[0,0.5],[1,0.5]];portConstraint=eastwest;rounded=0;shadow=0;html=0;" vertex="1" parent="vHaJpaE_rv1m4daf2spT-135">
          <mxGeometry y="130" width="160" height="26" as="geometry" />
        </mxCell>
        <mxCell id="vHaJpaE_rv1m4daf2spT-141" value="- fourni_cp" style="text;align=left;verticalAlign=top;spacingLeft=4;spacingRight=4;overflow=hidden;rotatable=0;points=[[0,0.5],[1,0.5]];portConstraint=eastwest;rounded=0;shadow=0;html=0;" vertex="1" parent="vHaJpaE_rv1m4daf2spT-135">
          <mxGeometry y="156" width="160" height="26" as="geometry" />
        </mxCell>
        <mxCell id="vHaJpaE_rv1m4daf2spT-143" value="- fourni_email" style="text;align=left;verticalAlign=top;spacingLeft=4;spacingRight=4;overflow=hidden;rotatable=0;points=[[0,0.5],[1,0.5]];portConstraint=eastwest;rounded=0;shadow=0;html=0;" vertex="1" parent="vHaJpaE_rv1m4daf2spT-135">
          <mxGeometry y="182" width="160" height="26" as="geometry" />
        </mxCell>
        <mxCell id="vHaJpaE_rv1m4daf2spT-144" value="- fourni_tel" style="text;align=left;verticalAlign=top;spacingLeft=4;spacingRight=4;overflow=hidden;rotatable=0;points=[[0,0.5],[1,0.5]];portConstraint=eastwest;rounded=0;shadow=0;html=0;" vertex="1" parent="vHaJpaE_rv1m4daf2spT-135">
          <mxGeometry y="208" width="160" height="26" as="geometry" />
        </mxCell>
        <mxCell id="vHaJpaE_rv1m4daf2spT-142" value="" style="line;html=1;strokeWidth=1;align=left;verticalAlign=middle;spacingTop=-1;spacingLeft=3;spacingRight=3;rotatable=0;labelPosition=right;points=[];portConstraint=eastwest;" vertex="1" parent="vHaJpaE_rv1m4daf2spT-135">
          <mxGeometry y="234" width="160" height="6" as="geometry" />
        </mxCell>
        <mxCell id="vHaJpaE_rv1m4daf2spT-145" value="+ ajouter_fournisseur()" style="text;align=left;verticalAlign=top;spacingLeft=4;spacingRight=4;overflow=hidden;rotatable=0;points=[[0,0.5],[1,0.5]];portConstraint=eastwest;rounded=0;shadow=0;html=0;" vertex="1" parent="vHaJpaE_rv1m4daf2spT-135">
          <mxGeometry y="240" width="160" height="26" as="geometry" />
        </mxCell>
        <mxCell id="vHaJpaE_rv1m4daf2spT-146" value="+ modifier_fournisseur()" style="text;align=left;verticalAlign=top;spacingLeft=4;spacingRight=4;overflow=hidden;rotatable=0;points=[[0,0.5],[1,0.5]];portConstraint=eastwest;rounded=0;shadow=0;html=0;" vertex="1" parent="vHaJpaE_rv1m4daf2spT-135">
          <mxGeometry y="266" width="160" height="26" as="geometry" />
        </mxCell>
        <mxCell id="vHaJpaE_rv1m4daf2spT-147" value="+ supprimer_fournisseur()" style="text;align=left;verticalAlign=top;spacingLeft=4;spacingRight=4;overflow=hidden;rotatable=0;points=[[0,0.5],[1,0.5]];portConstraint=eastwest;rounded=0;shadow=0;html=0;" vertex="1" parent="vHaJpaE_rv1m4daf2spT-135">
          <mxGeometry y="292" width="160" height="26" as="geometry" />
        </mxCell>
        <mxCell id="vHaJpaE_rv1m4daf2spT-294" style="edgeStyle=orthogonalEdgeStyle;rounded=0;orthogonalLoop=1;jettySize=auto;html=1;strokeColor=default;align=center;verticalAlign=middle;fontFamily=Helvetica;fontSize=11;fontColor=default;labelBackgroundColor=default;endArrow=classic;endFill=1;" edge="1" parent="WIyWlLk6GJQsqaUBKTNV-1" source="vHaJpaE_rv1m4daf2spT-148">
          <mxGeometry relative="1" as="geometry">
            <mxPoint x="870" y="960" as="targetPoint" />
            <Array as="points">
              <mxPoint x="1040" y="960" />
              <mxPoint x="870" y="960" />
            </Array>
          </mxGeometry>
        </mxCell>
        <mxCell id="vHaJpaE_rv1m4daf2spT-148" value="+ Telephone_tablette" style="swimlane;fontStyle=2;align=center;verticalAlign=top;childLayout=stackLayout;horizontal=1;startSize=26;horizontalStack=0;resizeParent=1;resizeLast=0;collapsible=1;marginBottom=0;rounded=0;shadow=0;strokeWidth=1;" vertex="1" parent="WIyWlLk6GJQsqaUBKTNV-1">
          <mxGeometry x="960" y="1059" width="160" height="500" as="geometry">
            <mxRectangle x="130" y="130" width="160" height="26" as="alternateBounds" />
          </mxGeometry>
        </mxCell>
        <mxCell id="vHaJpaE_rv1m4daf2spT-149" value="- tel_id" style="text;align=left;verticalAlign=top;spacingLeft=4;spacingRight=4;overflow=hidden;rotatable=0;points=[[0,0.5],[1,0.5]];portConstraint=eastwest;" vertex="1" parent="vHaJpaE_rv1m4daf2spT-148">
          <mxGeometry y="26" width="160" height="26" as="geometry" />
        </mxCell>
        <mxCell id="vHaJpaE_rv1m4daf2spT-167" value="- tel_sys_expl" style="text;align=left;verticalAlign=top;spacingLeft=4;spacingRight=4;overflow=hidden;rotatable=0;points=[[0,0.5],[1,0.5]];portConstraint=eastwest;" vertex="1" parent="vHaJpaE_rv1m4daf2spT-148">
          <mxGeometry y="52" width="160" height="26" as="geometry" />
        </mxCell>
        <mxCell id="vHaJpaE_rv1m4daf2spT-168" value="- tel_type_sim" style="text;align=left;verticalAlign=top;spacingLeft=4;spacingRight=4;overflow=hidden;rotatable=0;points=[[0,0.5],[1,0.5]];portConstraint=eastwest;" vertex="1" parent="vHaJpaE_rv1m4daf2spT-148">
          <mxGeometry y="78" width="160" height="26" as="geometry" />
        </mxCell>
        <mxCell id="vHaJpaE_rv1m4daf2spT-169" value="- tel_nbr_sim" style="text;align=left;verticalAlign=top;spacingLeft=4;spacingRight=4;overflow=hidden;rotatable=0;points=[[0,0.5],[1,0.5]];portConstraint=eastwest;" vertex="1" parent="vHaJpaE_rv1m4daf2spT-148">
          <mxGeometry y="104" width="160" height="26" as="geometry" />
        </mxCell>
        <mxCell id="vHaJpaE_rv1m4daf2spT-170" value="- tel_proc" style="text;align=left;verticalAlign=top;spacingLeft=4;spacingRight=4;overflow=hidden;rotatable=0;points=[[0,0.5],[1,0.5]];portConstraint=eastwest;" vertex="1" parent="vHaJpaE_rv1m4daf2spT-148">
          <mxGeometry y="130" width="160" height="26" as="geometry" />
        </mxCell>
        <mxCell id="vHaJpaE_rv1m4daf2spT-171" value="- tel_type_charge" style="text;align=left;verticalAlign=top;spacingLeft=4;spacingRight=4;overflow=hidden;rotatable=0;points=[[0,0.5],[1,0.5]];portConstraint=eastwest;" vertex="1" parent="vHaJpaE_rv1m4daf2spT-148">
          <mxGeometry y="156" width="160" height="26" as="geometry" />
        </mxCell>
        <mxCell id="vHaJpaE_rv1m4daf2spT-172" value="- tel_proc_modele" style="text;align=left;verticalAlign=top;spacingLeft=4;spacingRight=4;overflow=hidden;rotatable=0;points=[[0,0.5],[1,0.5]];portConstraint=eastwest;" vertex="1" parent="vHaJpaE_rv1m4daf2spT-148">
          <mxGeometry y="182" width="160" height="26" as="geometry" />
        </mxCell>
        <mxCell id="vHaJpaE_rv1m4daf2spT-173" value="- tel_bat" style="text;align=left;verticalAlign=top;spacingLeft=4;spacingRight=4;overflow=hidden;rotatable=0;points=[[0,0.5],[1,0.5]];portConstraint=eastwest;" vertex="1" parent="vHaJpaE_rv1m4daf2spT-148">
          <mxGeometry y="208" width="160" height="26" as="geometry" />
        </mxCell>
        <mxCell id="vHaJpaE_rv1m4daf2spT-174" value="- tel_etat_bat" style="text;align=left;verticalAlign=top;spacingLeft=4;spacingRight=4;overflow=hidden;rotatable=0;points=[[0,0.5],[1,0.5]];portConstraint=eastwest;" vertex="1" parent="vHaJpaE_rv1m4daf2spT-148">
          <mxGeometry y="234" width="160" height="26" as="geometry" />
        </mxCell>
        <mxCell id="vHaJpaE_rv1m4daf2spT-175" value="- tel_taille_ecran" style="text;align=left;verticalAlign=top;spacingLeft=4;spacingRight=4;overflow=hidden;rotatable=0;points=[[0,0.5],[1,0.5]];portConstraint=eastwest;" vertex="1" parent="vHaJpaE_rv1m4daf2spT-148">
          <mxGeometry y="260" width="160" height="26" as="geometry" />
        </mxCell>
        <mxCell id="vHaJpaE_rv1m4daf2spT-176" value="- tel_res_ecran" style="text;align=left;verticalAlign=top;spacingLeft=4;spacingRight=4;overflow=hidden;rotatable=0;points=[[0,0.5],[1,0.5]];portConstraint=eastwest;" vertex="1" parent="vHaJpaE_rv1m4daf2spT-148">
          <mxGeometry y="286" width="160" height="26" as="geometry" />
        </mxCell>
        <mxCell id="vHaJpaE_rv1m4daf2spT-177" value="- tel_freq_ecran" style="text;align=left;verticalAlign=top;spacingLeft=4;spacingRight=4;overflow=hidden;rotatable=0;points=[[0,0.5],[1,0.5]];portConstraint=eastwest;" vertex="1" parent="vHaJpaE_rv1m4daf2spT-148">
          <mxGeometry y="312" width="160" height="26" as="geometry" />
        </mxCell>
        <mxCell id="vHaJpaE_rv1m4daf2spT-178" value="- tel_reseau" style="text;align=left;verticalAlign=top;spacingLeft=4;spacingRight=4;overflow=hidden;rotatable=0;points=[[0,0.5],[1,0.5]];portConstraint=eastwest;" vertex="1" parent="vHaJpaE_rv1m4daf2spT-148">
          <mxGeometry y="338" width="160" height="26" as="geometry" />
        </mxCell>
        <mxCell id="vHaJpaE_rv1m4daf2spT-179" value="- tel_bluetooth" style="text;align=left;verticalAlign=top;spacingLeft=4;spacingRight=4;overflow=hidden;rotatable=0;points=[[0,0.5],[1,0.5]];portConstraint=eastwest;" vertex="1" parent="vHaJpaE_rv1m4daf2spT-148">
          <mxGeometry y="364" width="160" height="26" as="geometry" />
        </mxCell>
        <mxCell id="vHaJpaE_rv1m4daf2spT-180" value="- tel_wifi" style="text;align=left;verticalAlign=top;spacingLeft=4;spacingRight=4;overflow=hidden;rotatable=0;points=[[0,0.5],[1,0.5]];portConstraint=eastwest;" vertex="1" parent="vHaJpaE_rv1m4daf2spT-148">
          <mxGeometry y="390" width="160" height="26" as="geometry" />
        </mxCell>
        <mxCell id="vHaJpaE_rv1m4daf2spT-181" value="- tel_memoire" style="text;align=left;verticalAlign=top;spacingLeft=4;spacingRight=4;overflow=hidden;rotatable=0;points=[[0,0.5],[1,0.5]];portConstraint=eastwest;" vertex="1" parent="vHaJpaE_rv1m4daf2spT-148">
          <mxGeometry y="416" width="160" height="26" as="geometry" />
        </mxCell>
        <mxCell id="vHaJpaE_rv1m4daf2spT-182" value="- tel_ram" style="text;align=left;verticalAlign=top;spacingLeft=4;spacingRight=4;overflow=hidden;rotatable=0;points=[[0,0.5],[1,0.5]];portConstraint=eastwest;" vertex="1" parent="vHaJpaE_rv1m4daf2spT-148">
          <mxGeometry y="442" width="160" height="26" as="geometry" />
        </mxCell>
        <mxCell id="vHaJpaE_rv1m4daf2spT-163" value="" style="line;html=1;strokeWidth=1;align=left;verticalAlign=middle;spacingTop=-1;spacingLeft=3;spacingRight=3;rotatable=0;labelPosition=right;points=[];portConstraint=eastwest;" vertex="1" parent="vHaJpaE_rv1m4daf2spT-148">
          <mxGeometry y="468" width="160" height="6" as="geometry" />
        </mxCell>
        <mxCell id="vHaJpaE_rv1m4daf2spT-295" style="edgeStyle=orthogonalEdgeStyle;rounded=0;orthogonalLoop=1;jettySize=auto;html=1;strokeColor=default;align=center;verticalAlign=middle;fontFamily=Helvetica;fontSize=11;fontColor=default;labelBackgroundColor=default;endArrow=classic;endFill=1;" edge="1" parent="WIyWlLk6GJQsqaUBKTNV-1" source="vHaJpaE_rv1m4daf2spT-184">
          <mxGeometry relative="1" as="geometry">
            <mxPoint x="870" y="930" as="targetPoint" />
            <Array as="points">
              <mxPoint x="1220" y="930" />
              <mxPoint x="870" y="930" />
            </Array>
          </mxGeometry>
        </mxCell>
        <mxCell id="vHaJpaE_rv1m4daf2spT-184" value="+ Television" style="swimlane;fontStyle=2;align=center;verticalAlign=top;childLayout=stackLayout;horizontal=1;startSize=26;horizontalStack=0;resizeParent=1;resizeLast=0;collapsible=1;marginBottom=0;rounded=0;shadow=0;strokeWidth=1;" vertex="1" parent="WIyWlLk6GJQsqaUBKTNV-1">
          <mxGeometry x="1140" y="1059" width="160" height="266" as="geometry">
            <mxRectangle x="130" y="130" width="160" height="26" as="alternateBounds" />
          </mxGeometry>
        </mxCell>
        <mxCell id="vHaJpaE_rv1m4daf2spT-185" value="- tv_id" style="text;align=left;verticalAlign=top;spacingLeft=4;spacingRight=4;overflow=hidden;rotatable=0;points=[[0,0.5],[1,0.5]];portConstraint=eastwest;" vertex="1" parent="vHaJpaE_rv1m4daf2spT-184">
          <mxGeometry y="26" width="160" height="26" as="geometry" />
        </mxCell>
        <mxCell id="vHaJpaE_rv1m4daf2spT-188" value="- tv_resolution" style="text;align=left;verticalAlign=top;spacingLeft=4;spacingRight=4;overflow=hidden;rotatable=0;points=[[0,0.5],[1,0.5]];portConstraint=eastwest;" vertex="1" parent="vHaJpaE_rv1m4daf2spT-184">
          <mxGeometry y="52" width="160" height="26" as="geometry" />
        </mxCell>
        <mxCell id="vHaJpaE_rv1m4daf2spT-189" value="- tv_def" style="text;align=left;verticalAlign=top;spacingLeft=4;spacingRight=4;overflow=hidden;rotatable=0;points=[[0,0.5],[1,0.5]];portConstraint=eastwest;" vertex="1" parent="vHaJpaE_rv1m4daf2spT-184">
          <mxGeometry y="78" width="160" height="26" as="geometry" />
        </mxCell>
        <mxCell id="vHaJpaE_rv1m4daf2spT-190" value="- tv_techno" style="text;align=left;verticalAlign=top;spacingLeft=4;spacingRight=4;overflow=hidden;rotatable=0;points=[[0,0.5],[1,0.5]];portConstraint=eastwest;" vertex="1" parent="vHaJpaE_rv1m4daf2spT-184">
          <mxGeometry y="104" width="160" height="26" as="geometry" />
        </mxCell>
        <mxCell id="vHaJpaE_rv1m4daf2spT-191" value="- tv_proc" style="text;align=left;verticalAlign=top;spacingLeft=4;spacingRight=4;overflow=hidden;rotatable=0;points=[[0,0.5],[1,0.5]];portConstraint=eastwest;" vertex="1" parent="vHaJpaE_rv1m4daf2spT-184">
          <mxGeometry y="130" width="160" height="26" as="geometry" />
        </mxCell>
        <mxCell id="vHaJpaE_rv1m4daf2spT-192" value="- tv_son_puiss" style="text;align=left;verticalAlign=top;spacingLeft=4;spacingRight=4;overflow=hidden;rotatable=0;points=[[0,0.5],[1,0.5]];portConstraint=eastwest;" vertex="1" parent="vHaJpaE_rv1m4daf2spT-184">
          <mxGeometry y="156" width="160" height="26" as="geometry" />
        </mxCell>
        <mxCell id="vHaJpaE_rv1m4daf2spT-193" value="- tv_port_hdmi" style="text;align=left;verticalAlign=top;spacingLeft=4;spacingRight=4;overflow=hidden;rotatable=0;points=[[0,0.5],[1,0.5]];portConstraint=eastwest;" vertex="1" parent="vHaJpaE_rv1m4daf2spT-184">
          <mxGeometry y="182" width="160" height="26" as="geometry" />
        </mxCell>
        <mxCell id="vHaJpaE_rv1m4daf2spT-194" value="- tv_port_usb" style="text;align=left;verticalAlign=top;spacingLeft=4;spacingRight=4;overflow=hidden;rotatable=0;points=[[0,0.5],[1,0.5]];portConstraint=eastwest;" vertex="1" parent="vHaJpaE_rv1m4daf2spT-184">
          <mxGeometry y="208" width="160" height="26" as="geometry" />
        </mxCell>
        <mxCell id="vHaJpaE_rv1m4daf2spT-187" value="" style="line;html=1;strokeWidth=1;align=left;verticalAlign=middle;spacingTop=-1;spacingLeft=3;spacingRight=3;rotatable=0;labelPosition=right;points=[];portConstraint=eastwest;" vertex="1" parent="vHaJpaE_rv1m4daf2spT-184">
          <mxGeometry y="234" width="160" height="6" as="geometry" />
        </mxCell>
        <mxCell id="vHaJpaE_rv1m4daf2spT-296" style="edgeStyle=orthogonalEdgeStyle;rounded=0;orthogonalLoop=1;jettySize=auto;html=1;strokeColor=default;align=center;verticalAlign=middle;fontFamily=Helvetica;fontSize=11;fontColor=default;labelBackgroundColor=default;endArrow=classic;endFill=1;" edge="1" parent="WIyWlLk6GJQsqaUBKTNV-1" source="vHaJpaE_rv1m4daf2spT-196">
          <mxGeometry relative="1" as="geometry">
            <mxPoint x="870" y="900" as="targetPoint" />
            <Array as="points">
              <mxPoint x="1400" y="900" />
              <mxPoint x="870" y="900" />
            </Array>
          </mxGeometry>
        </mxCell>
        <mxCell id="vHaJpaE_rv1m4daf2spT-196" value="+ Ordinateur_portable" style="swimlane;fontStyle=2;align=center;verticalAlign=top;childLayout=stackLayout;horizontal=1;startSize=26;horizontalStack=0;resizeParent=1;resizeLast=0;collapsible=1;marginBottom=0;rounded=0;shadow=0;strokeWidth=1;" vertex="1" parent="WIyWlLk6GJQsqaUBKTNV-1">
          <mxGeometry x="1320" y="1059" width="160" height="474" as="geometry">
            <mxRectangle x="130" y="130" width="160" height="26" as="alternateBounds" />
          </mxGeometry>
        </mxCell>
        <mxCell id="vHaJpaE_rv1m4daf2spT-197" value="- op_id" style="text;align=left;verticalAlign=top;spacingLeft=4;spacingRight=4;overflow=hidden;rotatable=0;points=[[0,0.5],[1,0.5]];portConstraint=eastwest;" vertex="1" parent="vHaJpaE_rv1m4daf2spT-196">
          <mxGeometry y="26" width="160" height="26" as="geometry" />
        </mxCell>
        <mxCell id="vHaJpaE_rv1m4daf2spT-206" value="- op_resolution" style="text;align=left;verticalAlign=top;spacingLeft=4;spacingRight=4;overflow=hidden;rotatable=0;points=[[0,0.5],[1,0.5]];portConstraint=eastwest;" vertex="1" parent="vHaJpaE_rv1m4daf2spT-196">
          <mxGeometry y="52" width="160" height="26" as="geometry" />
        </mxCell>
        <mxCell id="vHaJpaE_rv1m4daf2spT-207" value="- op_webcam" style="text;align=left;verticalAlign=top;spacingLeft=4;spacingRight=4;overflow=hidden;rotatable=0;points=[[0,0.5],[1,0.5]];portConstraint=eastwest;" vertex="1" parent="vHaJpaE_rv1m4daf2spT-196">
          <mxGeometry y="78" width="160" height="26" as="geometry" />
        </mxCell>
        <mxCell id="vHaJpaE_rv1m4daf2spT-208" value="- op_proc" style="text;align=left;verticalAlign=top;spacingLeft=4;spacingRight=4;overflow=hidden;rotatable=0;points=[[0,0.5],[1,0.5]];portConstraint=eastwest;" vertex="1" parent="vHaJpaE_rv1m4daf2spT-196">
          <mxGeometry y="104" width="160" height="26" as="geometry" />
        </mxCell>
        <mxCell id="vHaJpaE_rv1m4daf2spT-209" value="- op_proc_freq" style="text;align=left;verticalAlign=top;spacingLeft=4;spacingRight=4;overflow=hidden;rotatable=0;points=[[0,0.5],[1,0.5]];portConstraint=eastwest;" vertex="1" parent="vHaJpaE_rv1m4daf2spT-196">
          <mxGeometry y="130" width="160" height="26" as="geometry" />
        </mxCell>
        <mxCell id="vHaJpaE_rv1m4daf2spT-210" value="- op_proc_nbr_coeur" style="text;align=left;verticalAlign=top;spacingLeft=4;spacingRight=4;overflow=hidden;rotatable=0;points=[[0,0.5],[1,0.5]];portConstraint=eastwest;" vertex="1" parent="vHaJpaE_rv1m4daf2spT-196">
          <mxGeometry y="156" width="160" height="26" as="geometry" />
        </mxCell>
        <mxCell id="vHaJpaE_rv1m4daf2spT-211" value="- op_ram" style="text;align=left;verticalAlign=top;spacingLeft=4;spacingRight=4;overflow=hidden;rotatable=0;points=[[0,0.5],[1,0.5]];portConstraint=eastwest;" vertex="1" parent="vHaJpaE_rv1m4daf2spT-196">
          <mxGeometry y="182" width="160" height="26" as="geometry" />
        </mxCell>
        <mxCell id="vHaJpaE_rv1m4daf2spT-212" value="- op_ram_freq" style="text;align=left;verticalAlign=top;spacingLeft=4;spacingRight=4;overflow=hidden;rotatable=0;points=[[0,0.5],[1,0.5]];portConstraint=eastwest;" vertex="1" parent="vHaJpaE_rv1m4daf2spT-196">
          <mxGeometry y="208" width="160" height="26" as="geometry" />
        </mxCell>
        <mxCell id="vHaJpaE_rv1m4daf2spT-213" value="- op_cg_modele" style="text;align=left;verticalAlign=top;spacingLeft=4;spacingRight=4;overflow=hidden;rotatable=0;points=[[0,0.5],[1,0.5]];portConstraint=eastwest;" vertex="1" parent="vHaJpaE_rv1m4daf2spT-196">
          <mxGeometry y="234" width="160" height="26" as="geometry" />
        </mxCell>
        <mxCell id="vHaJpaE_rv1m4daf2spT-214" value="- op_stkage" style="text;align=left;verticalAlign=top;spacingLeft=4;spacingRight=4;overflow=hidden;rotatable=0;points=[[0,0.5],[1,0.5]];portConstraint=eastwest;" vertex="1" parent="vHaJpaE_rv1m4daf2spT-196">
          <mxGeometry y="260" width="160" height="26" as="geometry" />
        </mxCell>
        <mxCell id="vHaJpaE_rv1m4daf2spT-215" value="- op_type_stkage" style="text;align=left;verticalAlign=top;spacingLeft=4;spacingRight=4;overflow=hidden;rotatable=0;points=[[0,0.5],[1,0.5]];portConstraint=eastwest;" vertex="1" parent="vHaJpaE_rv1m4daf2spT-196">
          <mxGeometry y="286" width="160" height="26" as="geometry" />
        </mxCell>
        <mxCell id="vHaJpaE_rv1m4daf2spT-216" value="- op_wifi" style="text;align=left;verticalAlign=top;spacingLeft=4;spacingRight=4;overflow=hidden;rotatable=0;points=[[0,0.5],[1,0.5]];portConstraint=eastwest;" vertex="1" parent="vHaJpaE_rv1m4daf2spT-196">
          <mxGeometry y="312" width="160" height="26" as="geometry" />
        </mxCell>
        <mxCell id="vHaJpaE_rv1m4daf2spT-217" value="- op_bluetooth" style="text;align=left;verticalAlign=top;spacingLeft=4;spacingRight=4;overflow=hidden;rotatable=0;points=[[0,0.5],[1,0.5]];portConstraint=eastwest;" vertex="1" parent="vHaJpaE_rv1m4daf2spT-196">
          <mxGeometry y="338" width="160" height="26" as="geometry" />
        </mxCell>
        <mxCell id="vHaJpaE_rv1m4daf2spT-218" value="- op_port_usb" style="text;align=left;verticalAlign=top;spacingLeft=4;spacingRight=4;overflow=hidden;rotatable=0;points=[[0,0.5],[1,0.5]];portConstraint=eastwest;" vertex="1" parent="vHaJpaE_rv1m4daf2spT-196">
          <mxGeometry y="364" width="160" height="26" as="geometry" />
        </mxCell>
        <mxCell id="vHaJpaE_rv1m4daf2spT-219" value="- op_port_hdmi" style="text;align=left;verticalAlign=top;spacingLeft=4;spacingRight=4;overflow=hidden;rotatable=0;points=[[0,0.5],[1,0.5]];portConstraint=eastwest;" vertex="1" parent="vHaJpaE_rv1m4daf2spT-196">
          <mxGeometry y="390" width="160" height="26" as="geometry" />
        </mxCell>
        <mxCell id="vHaJpaE_rv1m4daf2spT-220" value="- op_sys_expl" style="text;align=left;verticalAlign=top;spacingLeft=4;spacingRight=4;overflow=hidden;rotatable=0;points=[[0,0.5],[1,0.5]];portConstraint=eastwest;" vertex="1" parent="vHaJpaE_rv1m4daf2spT-196">
          <mxGeometry y="416" width="160" height="26" as="geometry" />
        </mxCell>
        <mxCell id="vHaJpaE_rv1m4daf2spT-205" value="" style="line;html=1;strokeWidth=1;align=left;verticalAlign=middle;spacingTop=-1;spacingLeft=3;spacingRight=3;rotatable=0;labelPosition=right;points=[];portConstraint=eastwest;" vertex="1" parent="vHaJpaE_rv1m4daf2spT-196">
          <mxGeometry y="442" width="160" height="6" as="geometry" />
        </mxCell>
        <mxCell id="vHaJpaE_rv1m4daf2spT-222" value="+ Imprimante" style="swimlane;fontStyle=2;align=center;verticalAlign=top;childLayout=stackLayout;horizontal=1;startSize=26;horizontalStack=0;resizeParent=1;resizeLast=0;collapsible=1;marginBottom=0;rounded=0;shadow=0;strokeWidth=1;" vertex="1" parent="WIyWlLk6GJQsqaUBKTNV-1">
          <mxGeometry x="1500" y="1059" width="160" height="221" as="geometry">
            <mxRectangle x="130" y="130" width="160" height="26" as="alternateBounds" />
          </mxGeometry>
        </mxCell>
        <mxCell id="vHaJpaE_rv1m4daf2spT-223" value="- imp_id" style="text;align=left;verticalAlign=top;spacingLeft=4;spacingRight=4;overflow=hidden;rotatable=0;points=[[0,0.5],[1,0.5]];portConstraint=eastwest;" vertex="1" parent="vHaJpaE_rv1m4daf2spT-222">
          <mxGeometry y="26" width="160" height="26" as="geometry" />
        </mxCell>
        <mxCell id="vHaJpaE_rv1m4daf2spT-232" value="- imp_type" style="text;align=left;verticalAlign=top;spacingLeft=4;spacingRight=4;overflow=hidden;rotatable=0;points=[[0,0.5],[1,0.5]];portConstraint=eastwest;" vertex="1" parent="vHaJpaE_rv1m4daf2spT-222">
          <mxGeometry y="52" width="160" height="26" as="geometry" />
        </mxCell>
        <mxCell id="vHaJpaE_rv1m4daf2spT-233" value="- imp_vit" style="text;align=left;verticalAlign=top;spacingLeft=4;spacingRight=4;overflow=hidden;rotatable=0;points=[[0,0.5],[1,0.5]];portConstraint=eastwest;" vertex="1" parent="vHaJpaE_rv1m4daf2spT-222">
          <mxGeometry y="78" width="160" height="26" as="geometry" />
        </mxCell>
        <mxCell id="vHaJpaE_rv1m4daf2spT-234" value="- imp_qualiter" style="text;align=left;verticalAlign=top;spacingLeft=4;spacingRight=4;overflow=hidden;rotatable=0;points=[[0,0.5],[1,0.5]];portConstraint=eastwest;" vertex="1" parent="vHaJpaE_rv1m4daf2spT-222">
          <mxGeometry y="104" width="160" height="26" as="geometry" />
        </mxCell>
        <mxCell id="vHaJpaE_rv1m4daf2spT-235" value="- imp_qualiter_photo" style="text;align=left;verticalAlign=top;spacingLeft=4;spacingRight=4;overflow=hidden;rotatable=0;points=[[0,0.5],[1,0.5]];portConstraint=eastwest;" vertex="1" parent="vHaJpaE_rv1m4daf2spT-222">
          <mxGeometry y="130" width="160" height="26" as="geometry" />
        </mxCell>
        <mxCell id="vHaJpaE_rv1m4daf2spT-236" value="- imp_format" style="text;align=left;verticalAlign=top;spacingLeft=4;spacingRight=4;overflow=hidden;rotatable=0;points=[[0,0.5],[1,0.5]];portConstraint=eastwest;" vertex="1" parent="vHaJpaE_rv1m4daf2spT-222">
          <mxGeometry y="156" width="160" height="26" as="geometry" />
        </mxCell>
        <mxCell id="vHaJpaE_rv1m4daf2spT-231" value="" style="line;html=1;strokeWidth=1;align=left;verticalAlign=middle;spacingTop=-1;spacingLeft=3;spacingRight=3;rotatable=0;labelPosition=right;points=[];portConstraint=eastwest;" vertex="1" parent="vHaJpaE_rv1m4daf2spT-222">
          <mxGeometry y="182" width="160" height="6" as="geometry" />
        </mxCell>
        <mxCell id="vHaJpaE_rv1m4daf2spT-237" value="+ Unite_centrale" style="swimlane;fontStyle=2;align=center;verticalAlign=top;childLayout=stackLayout;horizontal=1;startSize=26;horizontalStack=0;resizeParent=1;resizeLast=0;collapsible=1;marginBottom=0;rounded=0;shadow=0;strokeWidth=1;" vertex="1" parent="WIyWlLk6GJQsqaUBKTNV-1">
          <mxGeometry x="1680" y="910" width="160" height="396" as="geometry">
            <mxRectangle x="130" y="130" width="160" height="26" as="alternateBounds" />
          </mxGeometry>
        </mxCell>
        <mxCell id="vHaJpaE_rv1m4daf2spT-238" value="- uc_id" style="text;align=left;verticalAlign=top;spacingLeft=4;spacingRight=4;overflow=hidden;rotatable=0;points=[[0,0.5],[1,0.5]];portConstraint=eastwest;" vertex="1" parent="vHaJpaE_rv1m4daf2spT-237">
          <mxGeometry y="26" width="160" height="26" as="geometry" />
        </mxCell>
        <mxCell id="vHaJpaE_rv1m4daf2spT-245" value="- uc_proc" style="text;align=left;verticalAlign=top;spacingLeft=4;spacingRight=4;overflow=hidden;rotatable=0;points=[[0,0.5],[1,0.5]];portConstraint=eastwest;" vertex="1" parent="vHaJpaE_rv1m4daf2spT-237">
          <mxGeometry y="52" width="160" height="26" as="geometry" />
        </mxCell>
        <mxCell id="vHaJpaE_rv1m4daf2spT-246" value="- uc_proc_frequence" style="text;align=left;verticalAlign=top;spacingLeft=4;spacingRight=4;overflow=hidden;rotatable=0;points=[[0,0.5],[1,0.5]];portConstraint=eastwest;" vertex="1" parent="vHaJpaE_rv1m4daf2spT-237">
          <mxGeometry y="78" width="160" height="26" as="geometry" />
        </mxCell>
        <mxCell id="vHaJpaE_rv1m4daf2spT-247" value="- uc_proc_nbr_coeur" style="text;align=left;verticalAlign=top;spacingLeft=4;spacingRight=4;overflow=hidden;rotatable=0;points=[[0,0.5],[1,0.5]];portConstraint=eastwest;" vertex="1" parent="vHaJpaE_rv1m4daf2spT-237">
          <mxGeometry y="104" width="160" height="26" as="geometry" />
        </mxCell>
        <mxCell id="vHaJpaE_rv1m4daf2spT-248" value="- uc_ram" style="text;align=left;verticalAlign=top;spacingLeft=4;spacingRight=4;overflow=hidden;rotatable=0;points=[[0,0.5],[1,0.5]];portConstraint=eastwest;" vertex="1" parent="vHaJpaE_rv1m4daf2spT-237">
          <mxGeometry y="130" width="160" height="26" as="geometry" />
        </mxCell>
        <mxCell id="vHaJpaE_rv1m4daf2spT-249" value="- uc_ram_type" style="text;align=left;verticalAlign=top;spacingLeft=4;spacingRight=4;overflow=hidden;rotatable=0;points=[[0,0.5],[1,0.5]];portConstraint=eastwest;" vertex="1" parent="vHaJpaE_rv1m4daf2spT-237">
          <mxGeometry y="156" width="160" height="26" as="geometry" />
        </mxCell>
        <mxCell id="vHaJpaE_rv1m4daf2spT-250" value="- uc_cg_modele" style="text;align=left;verticalAlign=top;spacingLeft=4;spacingRight=4;overflow=hidden;rotatable=0;points=[[0,0.5],[1,0.5]];portConstraint=eastwest;" vertex="1" parent="vHaJpaE_rv1m4daf2spT-237">
          <mxGeometry y="182" width="160" height="26" as="geometry" />
        </mxCell>
        <mxCell id="vHaJpaE_rv1m4daf2spT-251" value="- uc_stkage" style="text;align=left;verticalAlign=top;spacingLeft=4;spacingRight=4;overflow=hidden;rotatable=0;points=[[0,0.5],[1,0.5]];portConstraint=eastwest;" vertex="1" parent="vHaJpaE_rv1m4daf2spT-237">
          <mxGeometry y="208" width="160" height="26" as="geometry" />
        </mxCell>
        <mxCell id="vHaJpaE_rv1m4daf2spT-252" value="- uc_type_stkage" style="text;align=left;verticalAlign=top;spacingLeft=4;spacingRight=4;overflow=hidden;rotatable=0;points=[[0,0.5],[1,0.5]];portConstraint=eastwest;" vertex="1" parent="vHaJpaE_rv1m4daf2spT-237">
          <mxGeometry y="234" width="160" height="26" as="geometry" />
        </mxCell>
        <mxCell id="vHaJpaE_rv1m4daf2spT-253" value="- uc_wifi" style="text;align=left;verticalAlign=top;spacingLeft=4;spacingRight=4;overflow=hidden;rotatable=0;points=[[0,0.5],[1,0.5]];portConstraint=eastwest;" vertex="1" parent="vHaJpaE_rv1m4daf2spT-237">
          <mxGeometry y="260" width="160" height="26" as="geometry" />
        </mxCell>
        <mxCell id="vHaJpaE_rv1m4daf2spT-254" value="- uc_port_usb" style="text;align=left;verticalAlign=top;spacingLeft=4;spacingRight=4;overflow=hidden;rotatable=0;points=[[0,0.5],[1,0.5]];portConstraint=eastwest;" vertex="1" parent="vHaJpaE_rv1m4daf2spT-237">
          <mxGeometry y="286" width="160" height="26" as="geometry" />
        </mxCell>
        <mxCell id="vHaJpaE_rv1m4daf2spT-255" value="- uc_port_hdmi" style="text;align=left;verticalAlign=top;spacingLeft=4;spacingRight=4;overflow=hidden;rotatable=0;points=[[0,0.5],[1,0.5]];portConstraint=eastwest;" vertex="1" parent="vHaJpaE_rv1m4daf2spT-237">
          <mxGeometry y="312" width="160" height="26" as="geometry" />
        </mxCell>
        <mxCell id="vHaJpaE_rv1m4daf2spT-256" value="- uc_sys_expl" style="text;align=left;verticalAlign=top;spacingLeft=4;spacingRight=4;overflow=hidden;rotatable=0;points=[[0,0.5],[1,0.5]];portConstraint=eastwest;" vertex="1" parent="vHaJpaE_rv1m4daf2spT-237">
          <mxGeometry y="338" width="160" height="26" as="geometry" />
        </mxCell>
        <mxCell id="vHaJpaE_rv1m4daf2spT-244" value="" style="line;html=1;strokeWidth=1;align=left;verticalAlign=middle;spacingTop=-1;spacingLeft=3;spacingRight=3;rotatable=0;labelPosition=right;points=[];portConstraint=eastwest;" vertex="1" parent="vHaJpaE_rv1m4daf2spT-237">
          <mxGeometry y="364" width="160" height="6" as="geometry" />
        </mxCell>
        <mxCell id="vHaJpaE_rv1m4daf2spT-258" value="+ Enceinte" style="swimlane;fontStyle=2;align=center;verticalAlign=top;childLayout=stackLayout;horizontal=1;startSize=26;horizontalStack=0;resizeParent=1;resizeLast=0;collapsible=1;marginBottom=0;rounded=0;shadow=0;strokeWidth=1;" vertex="1" parent="WIyWlLk6GJQsqaUBKTNV-1">
          <mxGeometry x="1680" y="702" width="160" height="190" as="geometry">
            <mxRectangle x="130" y="130" width="160" height="26" as="alternateBounds" />
          </mxGeometry>
        </mxCell>
        <mxCell id="vHaJpaE_rv1m4daf2spT-259" value="- enc_id" style="text;align=left;verticalAlign=top;spacingLeft=4;spacingRight=4;overflow=hidden;rotatable=0;points=[[0,0.5],[1,0.5]];portConstraint=eastwest;" vertex="1" parent="vHaJpaE_rv1m4daf2spT-258">
          <mxGeometry y="26" width="160" height="26" as="geometry" />
        </mxCell>
        <mxCell id="vHaJpaE_rv1m4daf2spT-266" value="- enc_puissance" style="text;align=left;verticalAlign=top;spacingLeft=4;spacingRight=4;overflow=hidden;rotatable=0;points=[[0,0.5],[1,0.5]];portConstraint=eastwest;" vertex="1" parent="vHaJpaE_rv1m4daf2spT-258">
          <mxGeometry y="52" width="160" height="26" as="geometry" />
        </mxCell>
        <mxCell id="vHaJpaE_rv1m4daf2spT-267" value="- enc_alimentation" style="text;align=left;verticalAlign=top;spacingLeft=4;spacingRight=4;overflow=hidden;rotatable=0;points=[[0,0.5],[1,0.5]];portConstraint=eastwest;" vertex="1" parent="vHaJpaE_rv1m4daf2spT-258">
          <mxGeometry y="78" width="160" height="26" as="geometry" />
        </mxCell>
        <mxCell id="vHaJpaE_rv1m4daf2spT-268" value="- enc_wifi" style="text;align=left;verticalAlign=top;spacingLeft=4;spacingRight=4;overflow=hidden;rotatable=0;points=[[0,0.5],[1,0.5]];portConstraint=eastwest;" vertex="1" parent="vHaJpaE_rv1m4daf2spT-258">
          <mxGeometry y="104" width="160" height="26" as="geometry" />
        </mxCell>
        <mxCell id="vHaJpaE_rv1m4daf2spT-269" value="- enc_bluetooth" style="text;align=left;verticalAlign=top;spacingLeft=4;spacingRight=4;overflow=hidden;rotatable=0;points=[[0,0.5],[1,0.5]];portConstraint=eastwest;" vertex="1" parent="vHaJpaE_rv1m4daf2spT-258">
          <mxGeometry y="130" width="160" height="26" as="geometry" />
        </mxCell>
        <mxCell id="vHaJpaE_rv1m4daf2spT-265" value="" style="line;html=1;strokeWidth=1;align=left;verticalAlign=middle;spacingTop=-1;spacingLeft=3;spacingRight=3;rotatable=0;labelPosition=right;points=[];portConstraint=eastwest;" vertex="1" parent="vHaJpaE_rv1m4daf2spT-258">
          <mxGeometry y="156" width="160" height="6" as="geometry" />
        </mxCell>
        <mxCell id="vHaJpaE_rv1m4daf2spT-271" value="+ Console_gaming" style="swimlane;fontStyle=2;align=center;verticalAlign=top;childLayout=stackLayout;horizontal=1;startSize=26;horizontalStack=0;resizeParent=1;resizeLast=0;collapsible=1;marginBottom=0;rounded=0;shadow=0;strokeWidth=1;" vertex="1" parent="WIyWlLk6GJQsqaUBKTNV-1">
          <mxGeometry x="1680" y="470" width="160" height="214" as="geometry">
            <mxRectangle x="130" y="130" width="160" height="26" as="alternateBounds" />
          </mxGeometry>
        </mxCell>
        <mxCell id="vHaJpaE_rv1m4daf2spT-272" value="- cons_id" style="text;align=left;verticalAlign=top;spacingLeft=4;spacingRight=4;overflow=hidden;rotatable=0;points=[[0,0.5],[1,0.5]];portConstraint=eastwest;" vertex="1" parent="vHaJpaE_rv1m4daf2spT-271">
          <mxGeometry y="26" width="160" height="26" as="geometry" />
        </mxCell>
        <mxCell id="vHaJpaE_rv1m4daf2spT-278" value="- cons_port_usb" style="text;align=left;verticalAlign=top;spacingLeft=4;spacingRight=4;overflow=hidden;rotatable=0;points=[[0,0.5],[1,0.5]];portConstraint=eastwest;" vertex="1" parent="vHaJpaE_rv1m4daf2spT-271">
          <mxGeometry y="52" width="160" height="26" as="geometry" />
        </mxCell>
        <mxCell id="vHaJpaE_rv1m4daf2spT-279" value="- cons_port_hdmi" style="text;align=left;verticalAlign=top;spacingLeft=4;spacingRight=4;overflow=hidden;rotatable=0;points=[[0,0.5],[1,0.5]];portConstraint=eastwest;" vertex="1" parent="vHaJpaE_rv1m4daf2spT-271">
          <mxGeometry y="78" width="160" height="26" as="geometry" />
        </mxCell>
        <mxCell id="vHaJpaE_rv1m4daf2spT-280" value="- cons_disque_dur" style="text;align=left;verticalAlign=top;spacingLeft=4;spacingRight=4;overflow=hidden;rotatable=0;points=[[0,0.5],[1,0.5]];portConstraint=eastwest;" vertex="1" parent="vHaJpaE_rv1m4daf2spT-271">
          <mxGeometry y="104" width="160" height="26" as="geometry" />
        </mxCell>
        <mxCell id="vHaJpaE_rv1m4daf2spT-281" value="- cons_resolution" style="text;align=left;verticalAlign=top;spacingLeft=4;spacingRight=4;overflow=hidden;rotatable=0;points=[[0,0.5],[1,0.5]];portConstraint=eastwest;" vertex="1" parent="vHaJpaE_rv1m4daf2spT-271">
          <mxGeometry y="130" width="160" height="26" as="geometry" />
        </mxCell>
        <mxCell id="vHaJpaE_rv1m4daf2spT-282" value="- cons_fps" style="text;align=left;verticalAlign=top;spacingLeft=4;spacingRight=4;overflow=hidden;rotatable=0;points=[[0,0.5],[1,0.5]];portConstraint=eastwest;" vertex="1" parent="vHaJpaE_rv1m4daf2spT-271">
          <mxGeometry y="156" width="160" height="26" as="geometry" />
        </mxCell>
        <mxCell id="vHaJpaE_rv1m4daf2spT-277" value="" style="line;html=1;strokeWidth=1;align=left;verticalAlign=middle;spacingTop=-1;spacingLeft=3;spacingRight=3;rotatable=0;labelPosition=right;points=[];portConstraint=eastwest;" vertex="1" parent="vHaJpaE_rv1m4daf2spT-271">
          <mxGeometry y="182" width="160" height="6" as="geometry" />
        </mxCell>
        <mxCell id="vHaJpaE_rv1m4daf2spT-284" style="edgeStyle=orthogonalEdgeStyle;rounded=0;orthogonalLoop=1;jettySize=auto;html=1;entryX=0;entryY=0.5;entryDx=0;entryDy=0;endArrow=none;endFill=0;" edge="1" parent="WIyWlLk6GJQsqaUBKTNV-1" source="vHaJpaE_rv1m4daf2spT-13" target="vHaJpaE_rv1m4daf2spT-32">
          <mxGeometry relative="1" as="geometry" />
        </mxCell>
        <mxCell id="vHaJpaE_rv1m4daf2spT-286" style="edgeStyle=orthogonalEdgeStyle;rounded=0;orthogonalLoop=1;jettySize=auto;html=1;entryX=1;entryY=0.5;entryDx=0;entryDy=0;strokeColor=default;align=center;verticalAlign=middle;fontFamily=Helvetica;fontSize=11;fontColor=default;labelBackgroundColor=default;endArrow=none;endFill=0;" edge="1" parent="WIyWlLk6GJQsqaUBKTNV-1" source="vHaJpaE_rv1m4daf2spT-69" target="vHaJpaE_rv1m4daf2spT-30">
          <mxGeometry relative="1" as="geometry" />
        </mxCell>
        <mxCell id="vHaJpaE_rv1m4daf2spT-287" style="edgeStyle=orthogonalEdgeStyle;rounded=0;orthogonalLoop=1;jettySize=auto;html=1;entryX=1;entryY=0.5;entryDx=0;entryDy=0;strokeColor=default;align=center;verticalAlign=middle;fontFamily=Helvetica;fontSize=11;fontColor=default;labelBackgroundColor=default;endArrow=none;endFill=0;exitX=-0.009;exitY=-0.278;exitDx=0;exitDy=0;exitPerimeter=0;" edge="1" parent="WIyWlLk6GJQsqaUBKTNV-1" source="vHaJpaE_rv1m4daf2spT-75" target="vHaJpaE_rv1m4daf2spT-32">
          <mxGeometry relative="1" as="geometry" />
        </mxCell>
        <mxCell id="vHaJpaE_rv1m4daf2spT-290" style="edgeStyle=orthogonalEdgeStyle;rounded=0;orthogonalLoop=1;jettySize=auto;html=1;entryX=1;entryY=0.5;entryDx=0;entryDy=0;strokeColor=default;align=center;verticalAlign=middle;fontFamily=Helvetica;fontSize=11;fontColor=default;labelBackgroundColor=default;endArrow=none;endFill=0;exitX=0;exitY=0.5;exitDx=0;exitDy=0;" edge="1" parent="WIyWlLk6GJQsqaUBKTNV-1" source="vHaJpaE_rv1m4daf2spT-97" target="vHaJpaE_rv1m4daf2spT-115">
          <mxGeometry relative="1" as="geometry" />
        </mxCell>
        <mxCell id="vHaJpaE_rv1m4daf2spT-291" style="edgeStyle=orthogonalEdgeStyle;rounded=0;orthogonalLoop=1;jettySize=auto;html=1;entryX=0.505;entryY=1.006;entryDx=0;entryDy=0;entryPerimeter=0;strokeColor=default;align=center;verticalAlign=middle;fontFamily=Helvetica;fontSize=11;fontColor=default;labelBackgroundColor=default;endArrow=none;endFill=0;" edge="1" parent="WIyWlLk6GJQsqaUBKTNV-1" source="vHaJpaE_rv1m4daf2spT-117" target="vHaJpaE_rv1m4daf2spT-116">
          <mxGeometry relative="1" as="geometry" />
        </mxCell>
        <mxCell id="vHaJpaE_rv1m4daf2spT-292" style="edgeStyle=orthogonalEdgeStyle;rounded=0;orthogonalLoop=1;jettySize=auto;html=1;entryX=0.502;entryY=0.993;entryDx=0;entryDy=0;entryPerimeter=0;strokeColor=default;align=center;verticalAlign=middle;fontFamily=Helvetica;fontSize=11;fontColor=default;labelBackgroundColor=default;endArrow=none;endFill=0;" edge="1" parent="WIyWlLk6GJQsqaUBKTNV-1" source="vHaJpaE_rv1m4daf2spT-126" target="vHaJpaE_rv1m4daf2spT-107">
          <mxGeometry relative="1" as="geometry" />
        </mxCell>
        <mxCell id="vHaJpaE_rv1m4daf2spT-293" style="edgeStyle=orthogonalEdgeStyle;rounded=0;orthogonalLoop=1;jettySize=auto;html=1;entryX=1;entryY=0.5;entryDx=0;entryDy=0;strokeColor=default;align=center;verticalAlign=middle;fontFamily=Helvetica;fontSize=11;fontColor=default;labelBackgroundColor=default;endArrow=none;endFill=0;" edge="1" parent="WIyWlLk6GJQsqaUBKTNV-1" source="vHaJpaE_rv1m4daf2spT-140" target="vHaJpaE_rv1m4daf2spT-91">
          <mxGeometry relative="1" as="geometry" />
        </mxCell>
        <mxCell id="vHaJpaE_rv1m4daf2spT-297" style="edgeStyle=orthogonalEdgeStyle;rounded=0;orthogonalLoop=1;jettySize=auto;html=1;entryX=1.005;entryY=1.115;entryDx=0;entryDy=0;entryPerimeter=0;strokeColor=default;align=center;verticalAlign=middle;fontFamily=Helvetica;fontSize=11;fontColor=default;labelBackgroundColor=default;endArrow=classic;endFill=1;" edge="1" parent="WIyWlLk6GJQsqaUBKTNV-1" source="vHaJpaE_rv1m4daf2spT-222" target="vHaJpaE_rv1m4daf2spT-100">
          <mxGeometry relative="1" as="geometry" />
        </mxCell>
        <mxCell id="vHaJpaE_rv1m4daf2spT-298" style="edgeStyle=orthogonalEdgeStyle;rounded=0;orthogonalLoop=1;jettySize=auto;html=1;entryX=0.996;entryY=0.065;entryDx=0;entryDy=0;entryPerimeter=0;strokeColor=default;align=center;verticalAlign=middle;fontFamily=Helvetica;fontSize=11;fontColor=default;labelBackgroundColor=default;endArrow=classic;endFill=1;" edge="1" parent="WIyWlLk6GJQsqaUBKTNV-1" source="vHaJpaE_rv1m4daf2spT-267" target="vHaJpaE_rv1m4daf2spT-98">
          <mxGeometry relative="1" as="geometry" />
        </mxCell>
        <mxCell id="vHaJpaE_rv1m4daf2spT-299" style="edgeStyle=orthogonalEdgeStyle;rounded=0;orthogonalLoop=1;jettySize=auto;html=1;entryX=1;entryY=0.5;entryDx=0;entryDy=0;strokeColor=default;align=center;verticalAlign=middle;fontFamily=Helvetica;fontSize=11;fontColor=default;labelBackgroundColor=default;endArrow=classic;endFill=1;" edge="1" parent="WIyWlLk6GJQsqaUBKTNV-1" source="vHaJpaE_rv1m4daf2spT-245" target="vHaJpaE_rv1m4daf2spT-99">
          <mxGeometry relative="1" as="geometry">
            <Array as="points">
              <mxPoint x="1640" y="975" />
              <mxPoint x="1640" y="830" />
              <mxPoint x="1275" y="830" />
              <mxPoint x="1275" y="832" />
            </Array>
          </mxGeometry>
        </mxCell>
        <mxCell id="vHaJpaE_rv1m4daf2spT-300" style="edgeStyle=orthogonalEdgeStyle;rounded=0;orthogonalLoop=1;jettySize=auto;html=1;entryX=1;entryY=0.5;entryDx=0;entryDy=0;strokeColor=default;align=center;verticalAlign=middle;fontFamily=Helvetica;fontSize=11;fontColor=default;labelBackgroundColor=default;endArrow=classic;endFill=1;" edge="1" parent="WIyWlLk6GJQsqaUBKTNV-1" source="vHaJpaE_rv1m4daf2spT-280" target="vHaJpaE_rv1m4daf2spT-96">
          <mxGeometry relative="1" as="geometry">
            <Array as="points">
              <mxPoint x="1640" y="587" />
              <mxPoint x="1640" y="750" />
              <mxPoint x="1275" y="750" />
              <mxPoint x="1275" y="754" />
            </Array>
          </mxGeometry>
        </mxCell>
        <mxCell id="vHaJpaE_rv1m4daf2spT-301" value="0..1" style="text;html=1;align=center;verticalAlign=middle;whiteSpace=wrap;rounded=0;" vertex="1" parent="WIyWlLk6GJQsqaUBKTNV-1">
          <mxGeometry x="290" y="300" width="60" height="30" as="geometry" />
        </mxCell>
        <mxCell id="vHaJpaE_rv1m4daf2spT-303" value="*" style="text;html=1;align=center;verticalAlign=middle;whiteSpace=wrap;rounded=0;" vertex="1" parent="WIyWlLk6GJQsqaUBKTNV-1">
          <mxGeometry x="410" y="310" width="60" height="30" as="geometry" />
        </mxCell>
        <mxCell id="vHaJpaE_rv1m4daf2spT-304" value="*" style="text;html=1;align=center;verticalAlign=middle;whiteSpace=wrap;rounded=0;" vertex="1" parent="WIyWlLk6GJQsqaUBKTNV-1">
          <mxGeometry x="520" y="170" width="60" height="30" as="geometry" />
        </mxCell>
        <mxCell id="vHaJpaE_rv1m4daf2spT-305" value="passe" style="text;html=1;align=center;verticalAlign=middle;whiteSpace=wrap;rounded=0;" vertex="1" parent="WIyWlLk6GJQsqaUBKTNV-1">
          <mxGeometry x="350" y="350" width="60" height="30" as="geometry" />
        </mxCell>
        <mxCell id="vHaJpaE_rv1m4daf2spT-306" value="1" style="text;html=1;align=center;verticalAlign=middle;whiteSpace=wrap;rounded=0;" vertex="1" parent="WIyWlLk6GJQsqaUBKTNV-1">
          <mxGeometry x="520" y="220" width="60" height="30" as="geometry" />
        </mxCell>
        <mxCell id="vHaJpaE_rv1m4daf2spT-307" value="livre" style="text;html=1;align=center;verticalAlign=middle;whiteSpace=wrap;rounded=0;" vertex="1" parent="WIyWlLk6GJQsqaUBKTNV-1">
          <mxGeometry x="490" y="190" width="60" height="30" as="geometry" />
        </mxCell>
        <mxCell id="vHaJpaE_rv1m4daf2spT-308" value="1" style="text;html=1;align=center;verticalAlign=middle;whiteSpace=wrap;rounded=0;" vertex="1" parent="WIyWlLk6GJQsqaUBKTNV-1">
          <mxGeometry x="600" y="260" width="60" height="30" as="geometry" />
        </mxCell>
        <mxCell id="vHaJpaE_rv1m4daf2spT-309" value="0..1" style="text;html=1;align=center;verticalAlign=middle;whiteSpace=wrap;rounded=0;" vertex="1" parent="WIyWlLk6GJQsqaUBKTNV-1">
          <mxGeometry x="660" y="60" width="60" height="30" as="geometry" />
        </mxCell>
        <mxCell id="vHaJpaE_rv1m4daf2spT-311" value="paie" style="text;html=1;align=center;verticalAlign=middle;whiteSpace=wrap;rounded=0;" vertex="1" parent="WIyWlLk6GJQsqaUBKTNV-1">
          <mxGeometry x="650" y="180" width="60" height="30" as="geometry" />
        </mxCell>
        <mxCell id="vHaJpaE_rv1m4daf2spT-312" value="1" style="text;html=1;align=center;verticalAlign=middle;whiteSpace=wrap;rounded=0;" vertex="1" parent="WIyWlLk6GJQsqaUBKTNV-1">
          <mxGeometry x="600" y="310" width="60" height="30" as="geometry" />
        </mxCell>
        <mxCell id="vHaJpaE_rv1m4daf2spT-313" value="*" style="text;html=1;align=center;verticalAlign=middle;whiteSpace=wrap;rounded=0;" vertex="1" parent="WIyWlLk6GJQsqaUBKTNV-1">
          <mxGeometry x="670" y="310" width="60" height="30" as="geometry" />
        </mxCell>
        <mxCell id="vHaJpaE_rv1m4daf2spT-314" value="possÃ¨de" style="text;html=1;align=center;verticalAlign=middle;whiteSpace=wrap;rounded=0;" vertex="1" parent="WIyWlLk6GJQsqaUBKTNV-1">
          <mxGeometry x="630" y="342.5" width="60" height="30" as="geometry" />
        </mxCell>
        <mxCell id="vHaJpaE_rv1m4daf2spT-315" value="1..*" style="text;html=1;align=center;verticalAlign=middle;whiteSpace=wrap;rounded=0;" vertex="1" parent="WIyWlLk6GJQsqaUBKTNV-1">
          <mxGeometry x="780" y="470" width="60" height="30" as="geometry" />
        </mxCell>
        <mxCell id="vHaJpaE_rv1m4daf2spT-316" value="1..*" style="text;html=1;align=center;verticalAlign=middle;whiteSpace=wrap;rounded=0;" vertex="1" parent="WIyWlLk6GJQsqaUBKTNV-1">
          <mxGeometry x="780" y="555" width="60" height="30" as="geometry" />
        </mxCell>
        <mxCell id="vHaJpaE_rv1m4daf2spT-317" value="contient" style="text;html=1;align=center;verticalAlign=middle;whiteSpace=wrap;rounded=0;" vertex="1" parent="WIyWlLk6GJQsqaUBKTNV-1">
          <mxGeometry x="730" y="522.5" width="60" height="30" as="geometry" />
        </mxCell>
        <mxCell id="vHaJpaE_rv1m4daf2spT-318" value="1" style="text;html=1;align=center;verticalAlign=middle;whiteSpace=wrap;rounded=0;" vertex="1" parent="WIyWlLk6GJQsqaUBKTNV-1">
          <mxGeometry x="600" y="750" width="60" height="30" as="geometry" />
        </mxCell>
        <mxCell id="vHaJpaE_rv1m4daf2spT-319" value="*" style="text;html=1;align=center;verticalAlign=middle;whiteSpace=wrap;rounded=0;" vertex="1" parent="WIyWlLk6GJQsqaUBKTNV-1">
          <mxGeometry x="670" y="750" width="60" height="30" as="geometry" />
        </mxCell>
        <mxCell id="vHaJpaE_rv1m4daf2spT-320" value="appartient2" style="text;html=1;align=center;verticalAlign=middle;whiteSpace=wrap;rounded=0;" vertex="1" parent="WIyWlLk6GJQsqaUBKTNV-1">
          <mxGeometry x="550" y="940" width="60" height="30" as="geometry" />
        </mxCell>
        <mxCell id="vHaJpaE_rv1m4daf2spT-321" value="appartient1" style="text;html=1;align=center;verticalAlign=middle;whiteSpace=wrap;rounded=0;" vertex="1" parent="WIyWlLk6GJQsqaUBKTNV-1">
          <mxGeometry x="650" y="792" width="60" height="30" as="geometry" />
        </mxCell>
        <mxCell id="vHaJpaE_rv1m4daf2spT-322" value="*" style="text;html=1;align=center;verticalAlign=middle;whiteSpace=wrap;rounded=0;" vertex="1" parent="WIyWlLk6GJQsqaUBKTNV-1">
          <mxGeometry x="500" y="904" width="60" height="30" as="geometry" />
        </mxCell>
        <mxCell id="vHaJpaE_rv1m4daf2spT-323" value="1" style="text;html=1;align=center;verticalAlign=middle;whiteSpace=wrap;rounded=0;" vertex="1" parent="WIyWlLk6GJQsqaUBKTNV-1">
          <mxGeometry x="500" y="971" width="60" height="30" as="geometry" />
        </mxCell>
        <mxCell id="vHaJpaE_rv1m4daf2spT-324" value="*" style="text;html=1;align=center;verticalAlign=middle;whiteSpace=wrap;rounded=0;" vertex="1" parent="WIyWlLk6GJQsqaUBKTNV-1">
          <mxGeometry x="750" y="1059" width="60" height="30" as="geometry" />
        </mxCell>
        <mxCell id="vHaJpaE_rv1m4daf2spT-328" value="1" style="text;html=1;align=center;verticalAlign=middle;whiteSpace=wrap;rounded=0;" vertex="1" parent="WIyWlLk6GJQsqaUBKTNV-1">
          <mxGeometry x="750" y="1115" width="60" height="30" as="geometry" />
        </mxCell>
        <mxCell id="vHaJpaE_rv1m4daf2spT-329" value="appartient3" style="text;html=1;align=center;verticalAlign=middle;whiteSpace=wrap;rounded=0;" vertex="1" parent="WIyWlLk6GJQsqaUBKTNV-1">
          <mxGeometry x="800" y="1089" width="60" height="30" as="geometry" />
        </mxCell>
        <mxCell id="vHaJpaE_rv1m4daf2spT-330" value="*" style="text;html=1;align=center;verticalAlign=middle;whiteSpace=wrap;rounded=0;" vertex="1" parent="WIyWlLk6GJQsqaUBKTNV-1">
          <mxGeometry x="850" y="648" width="60" height="30" as="geometry" />
        </mxCell>
        <mxCell id="vHaJpaE_rv1m4daf2spT-331" value="1" style="text;html=1;align=center;verticalAlign=middle;whiteSpace=wrap;rounded=0;" vertex="1" parent="WIyWlLk6GJQsqaUBKTNV-1">
          <mxGeometry x="940" y="480" width="60" height="30" as="geometry" />
        </mxCell>
        <mxCell id="vHaJpaE_rv1m4daf2spT-332" value="fourni" style="text;html=1;align=center;verticalAlign=middle;whiteSpace=wrap;rounded=0;" vertex="1" parent="WIyWlLk6GJQsqaUBKTNV-1">
          <mxGeometry x="870" y="540" width="60" height="30" as="geometry" />
        </mxCell>
      </root>
    </mxGraphModel>
  </diagram>
</mxfile>
